<mxfile host="app.diagrams.net" modified="2023-04-24T09:52:22.841Z" agent="Mozilla/5.0 (Windows NT 10.0; Win64; x64) AppleWebKit/537.36 (KHTML, like Gecko) Chrome/112.0.0.0 Safari/537.36" etag="mpuuAWQJR1TFDX8PdE_Z" version="21.2.1" type="device" pages="2">
  <diagram id="W05ewwODZcnhdZEYBM1m" name="Page-1">
    <mxGraphModel dx="1900" dy="1649" grid="1" gridSize="10" guides="1" tooltips="1" connect="1" arrows="1" fold="1" page="1" pageScale="1" pageWidth="850" pageHeight="1100" math="0" shadow="0">
      <root>
        <mxCell id="0" />
        <mxCell id="1" parent="0" />
        <mxCell id="GA5ly7tuo-fLt8JaKTmH-13" style="rounded=0;orthogonalLoop=1;jettySize=auto;html=1;entryX=0;entryY=0.5;entryDx=0;entryDy=0;edgeStyle=orthogonalEdgeStyle;curved=1;" parent="1" source="GA5ly7tuo-fLt8JaKTmH-1" target="KquU0BusfMD63qp1bwJY-27" edge="1">
          <mxGeometry relative="1" as="geometry" />
        </mxCell>
        <mxCell id="GA5ly7tuo-fLt8JaKTmH-20" value="&amp;lt;Letter&amp;gt;" style="edgeLabel;html=1;align=center;verticalAlign=middle;resizable=0;points=[];" parent="GA5ly7tuo-fLt8JaKTmH-13" vertex="1" connectable="0">
          <mxGeometry x="0.018" y="-2" relative="1" as="geometry">
            <mxPoint x="-1" y="-2" as="offset" />
          </mxGeometry>
        </mxCell>
        <mxCell id="GA5ly7tuo-fLt8JaKTmH-77" style="edgeStyle=orthogonalEdgeStyle;rounded=0;jumpStyle=arc;orthogonalLoop=1;jettySize=auto;html=1;entryX=0;entryY=0.5;entryDx=0;entryDy=0;curved=1;" parent="1" source="GA5ly7tuo-fLt8JaKTmH-1" target="KquU0BusfMD63qp1bwJY-25" edge="1">
          <mxGeometry relative="1" as="geometry" />
        </mxCell>
        <mxCell id="KquU0BusfMD63qp1bwJY-28" value="&amp;lt;Digit&amp;gt;" style="edgeLabel;html=1;align=center;verticalAlign=middle;resizable=0;points=[];" parent="GA5ly7tuo-fLt8JaKTmH-77" vertex="1" connectable="0">
          <mxGeometry x="0.6707" y="-2" relative="1" as="geometry">
            <mxPoint x="-6" y="-2" as="offset" />
          </mxGeometry>
        </mxCell>
        <mxCell id="KquU0BusfMD63qp1bwJY-4" style="edgeStyle=orthogonalEdgeStyle;rounded=0;orthogonalLoop=1;jettySize=auto;html=1;entryX=0;entryY=0.5;entryDx=0;entryDy=0;exitX=1;exitY=0.5;exitDx=0;exitDy=0;curved=1;" parent="1" source="GA5ly7tuo-fLt8JaKTmH-1" target="KquU0BusfMD63qp1bwJY-24" edge="1">
          <mxGeometry relative="1" as="geometry">
            <mxPoint x="130" y="170" as="sourcePoint" />
          </mxGeometry>
        </mxCell>
        <mxCell id="KquU0BusfMD63qp1bwJY-5" value="&amp;lt;TokenDelim&amp;gt; | &amp;lt;TokenDelimEnter&amp;gt;" style="edgeLabel;html=1;align=center;verticalAlign=middle;resizable=0;points=[];" parent="KquU0BusfMD63qp1bwJY-4" vertex="1" connectable="0">
          <mxGeometry x="0.6095" relative="1" as="geometry">
            <mxPoint x="-17" y="-15" as="offset" />
          </mxGeometry>
        </mxCell>
        <mxCell id="KquU0BusfMD63qp1bwJY-20" style="edgeStyle=orthogonalEdgeStyle;rounded=0;orthogonalLoop=1;jettySize=auto;html=1;entryX=0;entryY=0.5;entryDx=0;entryDy=0;curved=1;" parent="1" source="GA5ly7tuo-fLt8JaKTmH-1" target="KquU0BusfMD63qp1bwJY-23" edge="1">
          <mxGeometry relative="1" as="geometry">
            <mxPoint x="239.00000000000023" y="530" as="targetPoint" />
          </mxGeometry>
        </mxCell>
        <mxCell id="KquU0BusfMD63qp1bwJY-22" value="(" style="edgeLabel;html=1;align=center;verticalAlign=middle;resizable=0;points=[];" parent="KquU0BusfMD63qp1bwJY-20" vertex="1" connectable="0">
          <mxGeometry x="0.6218" relative="1" as="geometry">
            <mxPoint x="25" y="-20" as="offset" />
          </mxGeometry>
        </mxCell>
        <mxCell id="KquU0BusfMD63qp1bwJY-34" style="edgeStyle=orthogonalEdgeStyle;rounded=0;orthogonalLoop=1;jettySize=auto;html=1;entryX=0;entryY=0.5;entryDx=0;entryDy=0;curved=1;" parent="1" source="GA5ly7tuo-fLt8JaKTmH-1" target="KquU0BusfMD63qp1bwJY-31" edge="1">
          <mxGeometry relative="1" as="geometry" />
        </mxCell>
        <mxCell id="KquU0BusfMD63qp1bwJY-37" value=")" style="edgeLabel;html=1;align=center;verticalAlign=middle;resizable=0;points=[];" parent="KquU0BusfMD63qp1bwJY-34" vertex="1" connectable="0">
          <mxGeometry x="0.7067" y="-1" relative="1" as="geometry">
            <mxPoint x="15" y="-1" as="offset" />
          </mxGeometry>
        </mxCell>
        <mxCell id="KquU0BusfMD63qp1bwJY-35" style="edgeStyle=orthogonalEdgeStyle;rounded=0;orthogonalLoop=1;jettySize=auto;html=1;entryX=1;entryY=0.5;entryDx=0;entryDy=0;curved=1;" parent="1" source="GA5ly7tuo-fLt8JaKTmH-1" target="KquU0BusfMD63qp1bwJY-32" edge="1">
          <mxGeometry relative="1" as="geometry" />
        </mxCell>
        <mxCell id="KquU0BusfMD63qp1bwJY-38" value="{" style="edgeLabel;html=1;align=center;verticalAlign=middle;resizable=0;points=[];" parent="KquU0BusfMD63qp1bwJY-35" vertex="1" connectable="0">
          <mxGeometry x="0.7448" y="-1" relative="1" as="geometry">
            <mxPoint x="-19" y="-11" as="offset" />
          </mxGeometry>
        </mxCell>
        <mxCell id="KquU0BusfMD63qp1bwJY-36" style="edgeStyle=orthogonalEdgeStyle;rounded=0;orthogonalLoop=1;jettySize=auto;html=1;entryX=1;entryY=0.5;entryDx=0;entryDy=0;curved=1;" parent="1" source="GA5ly7tuo-fLt8JaKTmH-1" target="KquU0BusfMD63qp1bwJY-33" edge="1">
          <mxGeometry relative="1" as="geometry" />
        </mxCell>
        <mxCell id="KquU0BusfMD63qp1bwJY-39" value="}" style="edgeLabel;html=1;align=center;verticalAlign=middle;resizable=0;points=[];" parent="KquU0BusfMD63qp1bwJY-36" vertex="1" connectable="0">
          <mxGeometry x="0.7573" y="1" relative="1" as="geometry">
            <mxPoint x="-7" y="-11" as="offset" />
          </mxGeometry>
        </mxCell>
        <mxCell id="KquU0BusfMD63qp1bwJY-44" style="edgeStyle=orthogonalEdgeStyle;rounded=0;orthogonalLoop=1;jettySize=auto;html=1;entryX=1;entryY=0.5;entryDx=0;entryDy=0;curved=1;" parent="1" source="GA5ly7tuo-fLt8JaKTmH-1" target="KquU0BusfMD63qp1bwJY-40" edge="1">
          <mxGeometry relative="1" as="geometry" />
        </mxCell>
        <mxCell id="KquU0BusfMD63qp1bwJY-48" value="&lt;font style=&quot;font-size: 14px;&quot;&gt;*&amp;nbsp;&lt;/font&gt;" style="edgeLabel;html=1;align=center;verticalAlign=middle;resizable=0;points=[];" parent="KquU0BusfMD63qp1bwJY-44" vertex="1" connectable="0">
          <mxGeometry x="0.7839" y="-1" relative="1" as="geometry">
            <mxPoint x="6" y="-4" as="offset" />
          </mxGeometry>
        </mxCell>
        <mxCell id="KquU0BusfMD63qp1bwJY-45" style="edgeStyle=orthogonalEdgeStyle;rounded=0;orthogonalLoop=1;jettySize=auto;html=1;entryX=1;entryY=0.5;entryDx=0;entryDy=0;curved=1;" parent="1" source="GA5ly7tuo-fLt8JaKTmH-1" target="KquU0BusfMD63qp1bwJY-41" edge="1">
          <mxGeometry relative="1" as="geometry" />
        </mxCell>
        <mxCell id="KquU0BusfMD63qp1bwJY-50" value="&lt;font style=&quot;font-size: 12px;&quot;&gt;+&amp;nbsp;&lt;/font&gt;" style="edgeLabel;html=1;align=center;verticalAlign=middle;resizable=0;points=[];" parent="KquU0BusfMD63qp1bwJY-45" vertex="1" connectable="0">
          <mxGeometry x="0.8301" relative="1" as="geometry">
            <mxPoint x="5" y="-15" as="offset" />
          </mxGeometry>
        </mxCell>
        <mxCell id="KquU0BusfMD63qp1bwJY-46" style="edgeStyle=orthogonalEdgeStyle;rounded=0;orthogonalLoop=1;jettySize=auto;html=1;curved=1;entryX=1;entryY=0.5;entryDx=0;entryDy=0;" parent="1" source="GA5ly7tuo-fLt8JaKTmH-1" target="KquU0BusfMD63qp1bwJY-42" edge="1">
          <mxGeometry relative="1" as="geometry">
            <mxPoint x="-220" y="200" as="targetPoint" />
          </mxGeometry>
        </mxCell>
        <mxCell id="KquU0BusfMD63qp1bwJY-51" value="&lt;font style=&quot;font-size: 14px;&quot;&gt;-&lt;/font&gt;" style="edgeLabel;html=1;align=center;verticalAlign=middle;resizable=0;points=[];" parent="KquU0BusfMD63qp1bwJY-46" vertex="1" connectable="0">
          <mxGeometry x="0.8462" relative="1" as="geometry">
            <mxPoint x="1" y="10" as="offset" />
          </mxGeometry>
        </mxCell>
        <mxCell id="KquU0BusfMD63qp1bwJY-47" style="edgeStyle=orthogonalEdgeStyle;rounded=0;orthogonalLoop=1;jettySize=auto;html=1;entryX=1;entryY=0.5;entryDx=0;entryDy=0;curved=1;" parent="1" source="GA5ly7tuo-fLt8JaKTmH-1" target="KquU0BusfMD63qp1bwJY-43" edge="1">
          <mxGeometry relative="1" as="geometry" />
        </mxCell>
        <mxCell id="KquU0BusfMD63qp1bwJY-55" value="&lt;font style=&quot;font-size: 14px;&quot;&gt;;&lt;/font&gt;" style="edgeLabel;html=1;align=center;verticalAlign=middle;resizable=0;points=[];" parent="KquU0BusfMD63qp1bwJY-47" vertex="1" connectable="0">
          <mxGeometry x="0.8431" y="-1" relative="1" as="geometry">
            <mxPoint x="-2" y="-14" as="offset" />
          </mxGeometry>
        </mxCell>
        <mxCell id="KquU0BusfMD63qp1bwJY-61" style="edgeStyle=orthogonalEdgeStyle;rounded=0;orthogonalLoop=1;jettySize=auto;html=1;entryX=1;entryY=0.5;entryDx=0;entryDy=0;curved=1;" parent="1" source="GA5ly7tuo-fLt8JaKTmH-1" target="KquU0BusfMD63qp1bwJY-56" edge="1">
          <mxGeometry relative="1" as="geometry" />
        </mxCell>
        <mxCell id="KquU0BusfMD63qp1bwJY-67" value="&lt;font style=&quot;font-size: 14px;&quot;&gt;:&lt;/font&gt;" style="edgeLabel;html=1;align=center;verticalAlign=middle;resizable=0;points=[];" parent="KquU0BusfMD63qp1bwJY-61" vertex="1" connectable="0">
          <mxGeometry x="0.8572" y="2" relative="1" as="geometry">
            <mxPoint x="-2" y="-12" as="offset" />
          </mxGeometry>
        </mxCell>
        <mxCell id="KquU0BusfMD63qp1bwJY-62" style="edgeStyle=orthogonalEdgeStyle;rounded=0;orthogonalLoop=1;jettySize=auto;html=1;entryX=1;entryY=0.5;entryDx=0;entryDy=0;curved=1;" parent="1" source="GA5ly7tuo-fLt8JaKTmH-1" target="KquU0BusfMD63qp1bwJY-57" edge="1">
          <mxGeometry relative="1" as="geometry" />
        </mxCell>
        <mxCell id="KquU0BusfMD63qp1bwJY-68" value="&amp;lt;Comma&amp;gt;" style="edgeLabel;html=1;align=center;verticalAlign=middle;resizable=0;points=[];" parent="KquU0BusfMD63qp1bwJY-62" vertex="1" connectable="0">
          <mxGeometry x="0.865" y="1" relative="1" as="geometry">
            <mxPoint x="15" y="-16" as="offset" />
          </mxGeometry>
        </mxCell>
        <mxCell id="KquU0BusfMD63qp1bwJY-63" style="edgeStyle=orthogonalEdgeStyle;rounded=0;orthogonalLoop=1;jettySize=auto;html=1;entryX=0;entryY=0.5;entryDx=0;entryDy=0;curved=1;" parent="1" source="GA5ly7tuo-fLt8JaKTmH-1" target="KquU0BusfMD63qp1bwJY-58" edge="1">
          <mxGeometry relative="1" as="geometry" />
        </mxCell>
        <mxCell id="KquU0BusfMD63qp1bwJY-69" value="=" style="edgeLabel;html=1;align=center;verticalAlign=middle;resizable=0;points=[];" parent="KquU0BusfMD63qp1bwJY-63" vertex="1" connectable="0">
          <mxGeometry x="0.8733" y="-1" relative="1" as="geometry">
            <mxPoint x="12" y="-16" as="offset" />
          </mxGeometry>
        </mxCell>
        <mxCell id="KquU0BusfMD63qp1bwJY-64" style="edgeStyle=orthogonalEdgeStyle;rounded=0;orthogonalLoop=1;jettySize=auto;html=1;entryX=0;entryY=0.5;entryDx=0;entryDy=0;curved=1;" parent="1" source="GA5ly7tuo-fLt8JaKTmH-1" target="KquU0BusfMD63qp1bwJY-59" edge="1">
          <mxGeometry relative="1" as="geometry" />
        </mxCell>
        <mxCell id="KquU0BusfMD63qp1bwJY-70" value="!" style="edgeLabel;html=1;align=center;verticalAlign=middle;resizable=0;points=[];" parent="KquU0BusfMD63qp1bwJY-64" vertex="1" connectable="0">
          <mxGeometry x="0.8867" y="1" relative="1" as="geometry">
            <mxPoint x="5" y="-14" as="offset" />
          </mxGeometry>
        </mxCell>
        <mxCell id="KquU0BusfMD63qp1bwJY-66" style="edgeStyle=orthogonalEdgeStyle;rounded=0;orthogonalLoop=1;jettySize=auto;html=1;curved=1;entryX=0;entryY=0.5;entryDx=0;entryDy=0;" parent="1" source="GA5ly7tuo-fLt8JaKTmH-1" target="KquU0BusfMD63qp1bwJY-60" edge="1">
          <mxGeometry relative="1" as="geometry">
            <Array as="points">
              <mxPoint x="220" y="155" />
              <mxPoint x="220" y="-55" />
            </Array>
            <mxPoint x="270" y="-60" as="targetPoint" />
          </mxGeometry>
        </mxCell>
        <mxCell id="KquU0BusfMD63qp1bwJY-71" value="&amp;lt; | &amp;gt;" style="edgeLabel;html=1;align=center;verticalAlign=middle;resizable=0;points=[];" parent="KquU0BusfMD63qp1bwJY-66" vertex="1" connectable="0">
          <mxGeometry x="0.8968" y="-1" relative="1" as="geometry">
            <mxPoint x="-1" y="-11" as="offset" />
          </mxGeometry>
        </mxCell>
        <mxCell id="KquU0BusfMD63qp1bwJY-89" style="edgeStyle=orthogonalEdgeStyle;rounded=0;orthogonalLoop=1;jettySize=auto;html=1;entryX=0;entryY=0.5;entryDx=0;entryDy=0;curved=1;exitX=1;exitY=0.5;exitDx=0;exitDy=0;" parent="1" source="mR5Z6gRy-ZtZRyUcgu2F-2" target="KquU0BusfMD63qp1bwJY-88" edge="1">
          <mxGeometry relative="1" as="geometry" />
        </mxCell>
        <mxCell id="KquU0BusfMD63qp1bwJY-90" value="#" style="edgeLabel;html=1;align=center;verticalAlign=middle;resizable=0;points=[];" parent="KquU0BusfMD63qp1bwJY-89" vertex="1" connectable="0">
          <mxGeometry x="0.8968" y="1" relative="1" as="geometry">
            <mxPoint x="-47" y="11" as="offset" />
          </mxGeometry>
        </mxCell>
        <mxCell id="KquU0BusfMD63qp1bwJY-108" value="&lt;font style=&quot;font-size: 14px;&quot;&gt;/&lt;/font&gt;" style="edgeStyle=orthogonalEdgeStyle;rounded=0;orthogonalLoop=1;jettySize=auto;html=1;entryX=0;entryY=0.5;entryDx=0;entryDy=0;curved=1;exitX=1;exitY=0.5;exitDx=0;exitDy=0;" parent="1" source="mR5Z6gRy-ZtZRyUcgu2F-2" target="KquU0BusfMD63qp1bwJY-107" edge="1">
          <mxGeometry x="-0.1333" y="10" relative="1" as="geometry">
            <mxPoint x="-200" y="850" as="sourcePoint" />
            <mxPoint as="offset" />
          </mxGeometry>
        </mxCell>
        <mxCell id="KquU0BusfMD63qp1bwJY-113" value="/" style="edgeLabel;html=1;align=center;verticalAlign=middle;resizable=0;points=[];" parent="KquU0BusfMD63qp1bwJY-108" vertex="1" connectable="0">
          <mxGeometry x="0.8979" relative="1" as="geometry">
            <mxPoint x="13" as="offset" />
          </mxGeometry>
        </mxCell>
        <mxCell id="KquU0BusfMD63qp1bwJY-147" style="rounded=0;orthogonalLoop=1;jettySize=auto;html=1;exitX=0.5;exitY=1;exitDx=0;exitDy=0;entryX=0.5;entryY=0;entryDx=0;entryDy=0;edgeStyle=orthogonalEdgeStyle;curved=1;" parent="1" source="mR5Z6gRy-ZtZRyUcgu2F-2" target="KquU0BusfMD63qp1bwJY-146" edge="1">
          <mxGeometry relative="1" as="geometry" />
        </mxCell>
        <mxCell id="KquU0BusfMD63qp1bwJY-148" value="_" style="edgeLabel;html=1;align=center;verticalAlign=middle;resizable=0;points=[];" parent="KquU0BusfMD63qp1bwJY-147" vertex="1" connectable="0">
          <mxGeometry x="0.9439" y="3" relative="1" as="geometry">
            <mxPoint x="12" y="-29" as="offset" />
          </mxGeometry>
        </mxCell>
        <mxCell id="GA5ly7tuo-fLt8JaKTmH-1" value="S0" style="ellipse;whiteSpace=wrap;html=1;aspect=fixed;" parent="1" vertex="1">
          <mxGeometry x="80" y="130" width="50" height="50" as="geometry" />
        </mxCell>
        <mxCell id="GA5ly7tuo-fLt8JaKTmH-156" style="rounded=0;jumpStyle=arc;orthogonalLoop=1;jettySize=auto;html=1;entryX=0.5;entryY=1;entryDx=0;entryDy=0;exitX=0.5;exitY=0;exitDx=0;exitDy=0;edgeStyle=orthogonalEdgeStyle;curved=1;" parent="1" source="KquU0BusfMD63qp1bwJY-27" target="KquU0BusfMD63qp1bwJY-27" edge="1">
          <mxGeometry relative="1" as="geometry" />
        </mxCell>
        <mxCell id="GA5ly7tuo-fLt8JaKTmH-158" value="_ | &amp;lt;Digit&amp;gt; | &amp;lt;Letter&amp;gt;" style="edgeLabel;html=1;align=center;verticalAlign=middle;resizable=0;points=[];" parent="GA5ly7tuo-fLt8JaKTmH-156" vertex="1" connectable="0">
          <mxGeometry x="-0.3725" y="-1" relative="1" as="geometry">
            <mxPoint x="-19" y="-4" as="offset" />
          </mxGeometry>
        </mxCell>
        <mxCell id="KquU0BusfMD63qp1bwJY-6" style="edgeStyle=orthogonalEdgeStyle;rounded=0;orthogonalLoop=1;jettySize=auto;html=1;entryX=0.5;entryY=1;entryDx=0;entryDy=0;exitX=0.5;exitY=0;exitDx=0;exitDy=0;curved=1;" parent="1" source="KquU0BusfMD63qp1bwJY-24" target="KquU0BusfMD63qp1bwJY-24" edge="1">
          <mxGeometry relative="1" as="geometry" />
        </mxCell>
        <mxCell id="KquU0BusfMD63qp1bwJY-7" value="&amp;lt;TokenDelim&amp;gt; | &amp;lt;TokenDelimEnter&amp;gt;" style="edgeLabel;html=1;align=center;verticalAlign=middle;resizable=0;points=[];" parent="KquU0BusfMD63qp1bwJY-6" vertex="1" connectable="0">
          <mxGeometry x="-0.2705" y="-1" relative="1" as="geometry">
            <mxPoint x="-9" y="-13" as="offset" />
          </mxGeometry>
        </mxCell>
        <mxCell id="KquU0BusfMD63qp1bwJY-13" style="edgeStyle=orthogonalEdgeStyle;rounded=0;orthogonalLoop=1;jettySize=auto;html=1;entryX=0;entryY=0.5;entryDx=0;entryDy=0;" parent="1" source="KquU0BusfMD63qp1bwJY-9" target="KquU0BusfMD63qp1bwJY-26" edge="1">
          <mxGeometry relative="1" as="geometry">
            <mxPoint x="550" y="420" as="targetPoint" />
            <Array as="points" />
          </mxGeometry>
        </mxCell>
        <mxCell id="KquU0BusfMD63qp1bwJY-14" value="&amp;lt;Digit&amp;gt;" style="edgeLabel;html=1;align=center;verticalAlign=middle;resizable=0;points=[];" parent="KquU0BusfMD63qp1bwJY-13" vertex="1" connectable="0">
          <mxGeometry x="-0.2429" relative="1" as="geometry">
            <mxPoint x="14" as="offset" />
          </mxGeometry>
        </mxCell>
        <mxCell id="KquU0BusfMD63qp1bwJY-9" value="Sinv1" style="ellipse;whiteSpace=wrap;html=1;aspect=fixed;" parent="1" vertex="1">
          <mxGeometry x="397.5" y="222.5" width="45" height="45" as="geometry" />
        </mxCell>
        <mxCell id="KquU0BusfMD63qp1bwJY-15" style="edgeStyle=orthogonalEdgeStyle;rounded=0;orthogonalLoop=1;jettySize=auto;html=1;entryX=0.5;entryY=1;entryDx=0;entryDy=0;exitX=0.5;exitY=0;exitDx=0;exitDy=0;curved=1;" parent="1" source="KquU0BusfMD63qp1bwJY-26" target="KquU0BusfMD63qp1bwJY-26" edge="1">
          <mxGeometry relative="1" as="geometry">
            <mxPoint x="580" y="400" as="sourcePoint" />
            <mxPoint x="580" y="440" as="targetPoint" />
          </mxGeometry>
        </mxCell>
        <mxCell id="KquU0BusfMD63qp1bwJY-18" value="&amp;lt;Digit&amp;gt;" style="edgeLabel;html=1;align=center;verticalAlign=middle;resizable=0;points=[];" parent="KquU0BusfMD63qp1bwJY-15" vertex="1" connectable="0">
          <mxGeometry x="-0.2133" y="2" relative="1" as="geometry">
            <mxPoint x="-22" y="-19" as="offset" />
          </mxGeometry>
        </mxCell>
        <mxCell id="KquU0BusfMD63qp1bwJY-16" style="edgeStyle=orthogonalEdgeStyle;rounded=0;orthogonalLoop=1;jettySize=auto;html=1;entryX=0.5;entryY=1;entryDx=0;entryDy=0;exitX=0.5;exitY=0;exitDx=0;exitDy=0;curved=1;" parent="1" source="KquU0BusfMD63qp1bwJY-25" target="KquU0BusfMD63qp1bwJY-25" edge="1">
          <mxGeometry relative="1" as="geometry" />
        </mxCell>
        <mxCell id="KquU0BusfMD63qp1bwJY-17" value="&amp;lt;Digit&amp;gt;" style="edgeLabel;html=1;align=center;verticalAlign=middle;resizable=0;points=[];" parent="KquU0BusfMD63qp1bwJY-16" vertex="1" connectable="0">
          <mxGeometry x="-0.2229" y="3" relative="1" as="geometry">
            <mxPoint x="-23" y="-18" as="offset" />
          </mxGeometry>
        </mxCell>
        <mxCell id="KquU0BusfMD63qp1bwJY-23" value="Sbrac1" style="ellipse;shape=doubleEllipse;whiteSpace=wrap;html=1;aspect=fixed;" parent="1" vertex="1">
          <mxGeometry x="250" y="300" width="50" height="50" as="geometry" />
        </mxCell>
        <mxCell id="KquU0BusfMD63qp1bwJY-24" value="Sdelim" style="ellipse;shape=doubleEllipse;whiteSpace=wrap;html=1;aspect=fixed;" parent="1" vertex="1">
          <mxGeometry x="470" y="100" width="50" height="50" as="geometry" />
        </mxCell>
        <mxCell id="KquU0BusfMD63qp1bwJY-29" style="edgeStyle=orthogonalEdgeStyle;rounded=0;orthogonalLoop=1;jettySize=auto;html=1;entryX=0;entryY=0.5;entryDx=0;entryDy=0;fontSize=26;fontStyle=1" parent="1" source="KquU0BusfMD63qp1bwJY-25" target="KquU0BusfMD63qp1bwJY-9" edge="1">
          <mxGeometry relative="1" as="geometry" />
        </mxCell>
        <mxCell id="KquU0BusfMD63qp1bwJY-30" value="&lt;font style=&quot;font-size: 15px;&quot;&gt;.&lt;/font&gt;" style="edgeLabel;html=1;align=center;verticalAlign=middle;resizable=0;points=[];" parent="KquU0BusfMD63qp1bwJY-29" vertex="1" connectable="0">
          <mxGeometry x="0.3071" y="1" relative="1" as="geometry">
            <mxPoint x="-11" y="-14" as="offset" />
          </mxGeometry>
        </mxCell>
        <mxCell id="KquU0BusfMD63qp1bwJY-25" value="Sint" style="ellipse;shape=doubleEllipse;whiteSpace=wrap;html=1;aspect=fixed;" parent="1" vertex="1">
          <mxGeometry x="270" y="220" width="50" height="50" as="geometry" />
        </mxCell>
        <mxCell id="KquU0BusfMD63qp1bwJY-26" value="Sfloat" style="ellipse;shape=doubleEllipse;whiteSpace=wrap;html=1;aspect=fixed;" parent="1" vertex="1">
          <mxGeometry x="530" y="222.5" width="45" height="45" as="geometry" />
        </mxCell>
        <mxCell id="KquU0BusfMD63qp1bwJY-27" value="Siden" style="ellipse;shape=doubleEllipse;whiteSpace=wrap;html=1;aspect=fixed;" parent="1" vertex="1">
          <mxGeometry x="450" y="-30" width="50" height="50" as="geometry" />
        </mxCell>
        <mxCell id="KquU0BusfMD63qp1bwJY-31" value="Sbrac2" style="ellipse;shape=doubleEllipse;whiteSpace=wrap;html=1;aspect=fixed;" parent="1" vertex="1">
          <mxGeometry x="240" y="360" width="50" height="50" as="geometry" />
        </mxCell>
        <mxCell id="KquU0BusfMD63qp1bwJY-32" value="Sbrac3" style="ellipse;shape=doubleEllipse;whiteSpace=wrap;html=1;aspect=fixed;" parent="1" vertex="1">
          <mxGeometry x="-180" y="-120" width="50" height="50" as="geometry" />
        </mxCell>
        <mxCell id="KquU0BusfMD63qp1bwJY-33" value="Sbrac4" style="ellipse;shape=doubleEllipse;whiteSpace=wrap;html=1;aspect=fixed;" parent="1" vertex="1">
          <mxGeometry x="-210" y="-60" width="50" height="50" as="geometry" />
        </mxCell>
        <mxCell id="KquU0BusfMD63qp1bwJY-40" value="Sstar" style="ellipse;shape=doubleEllipse;whiteSpace=wrap;html=1;aspect=fixed;" parent="1" vertex="1">
          <mxGeometry x="-70" y="350" width="50" height="50" as="geometry" />
        </mxCell>
        <mxCell id="KquU0BusfMD63qp1bwJY-41" value="Sadd" style="ellipse;shape=doubleEllipse;whiteSpace=wrap;html=1;aspect=fixed;" parent="1" vertex="1">
          <mxGeometry x="-110" y="290" width="50" height="50" as="geometry" />
        </mxCell>
        <mxCell id="KquU0BusfMD63qp1bwJY-53" style="edgeStyle=orthogonalEdgeStyle;rounded=0;orthogonalLoop=1;jettySize=auto;html=1;entryX=1;entryY=0.5;entryDx=0;entryDy=0;exitX=0;exitY=0.5;exitDx=0;exitDy=0;" parent="1" source="KquU0BusfMD63qp1bwJY-42" target="KquU0BusfMD63qp1bwJY-52" edge="1">
          <mxGeometry relative="1" as="geometry" />
        </mxCell>
        <mxCell id="KquU0BusfMD63qp1bwJY-54" value="&lt;font style=&quot;font-size: 12px;&quot;&gt;&amp;gt;&lt;/font&gt;" style="edgeLabel;html=1;align=center;verticalAlign=middle;resizable=0;points=[];" parent="KquU0BusfMD63qp1bwJY-53" vertex="1" connectable="0">
          <mxGeometry x="-0.2562" y="1" relative="1" as="geometry">
            <mxPoint x="-27" y="9" as="offset" />
          </mxGeometry>
        </mxCell>
        <mxCell id="KquU0BusfMD63qp1bwJY-42" value="Ssub" style="ellipse;shape=doubleEllipse;whiteSpace=wrap;html=1;aspect=fixed;" parent="1" vertex="1">
          <mxGeometry x="-140" y="210" width="50" height="50" as="geometry" />
        </mxCell>
        <mxCell id="KquU0BusfMD63qp1bwJY-43" value="Sscol" style="ellipse;shape=doubleEllipse;whiteSpace=wrap;html=1;aspect=fixed;" parent="1" vertex="1">
          <mxGeometry x="-230" y="160" width="50" height="50" as="geometry" />
        </mxCell>
        <mxCell id="KquU0BusfMD63qp1bwJY-52" value="Sarr" style="ellipse;shape=doubleEllipse;whiteSpace=wrap;html=1;aspect=fixed;" parent="1" vertex="1">
          <mxGeometry x="-268.75" y="211.25" width="48.75" height="48.75" as="geometry" />
        </mxCell>
        <mxCell id="KquU0BusfMD63qp1bwJY-56" value="Scol" style="ellipse;shape=doubleEllipse;whiteSpace=wrap;html=1;aspect=fixed;" parent="1" vertex="1">
          <mxGeometry x="-230" y="85" width="50" height="50" as="geometry" />
        </mxCell>
        <mxCell id="KquU0BusfMD63qp1bwJY-57" value="Scomm" style="ellipse;shape=doubleEllipse;whiteSpace=wrap;html=1;aspect=fixed;" parent="1" vertex="1">
          <mxGeometry x="-220" y="20" width="50" height="50" as="geometry" />
        </mxCell>
        <mxCell id="KquU0BusfMD63qp1bwJY-85" style="edgeStyle=orthogonalEdgeStyle;rounded=0;orthogonalLoop=1;jettySize=auto;html=1;curved=1;" parent="1" source="KquU0BusfMD63qp1bwJY-58" target="KquU0BusfMD63qp1bwJY-84" edge="1">
          <mxGeometry relative="1" as="geometry" />
        </mxCell>
        <mxCell id="KquU0BusfMD63qp1bwJY-86" value="=" style="edgeLabel;html=1;align=center;verticalAlign=middle;resizable=0;points=[];" parent="KquU0BusfMD63qp1bwJY-85" vertex="1" connectable="0">
          <mxGeometry x="-0.1556" y="-2" relative="1" as="geometry">
            <mxPoint x="-24" y="-7" as="offset" />
          </mxGeometry>
        </mxCell>
        <mxCell id="KquU0BusfMD63qp1bwJY-58" value="Sequ" style="ellipse;shape=doubleEllipse;whiteSpace=wrap;html=1;aspect=fixed;" parent="1" vertex="1">
          <mxGeometry x="260" y="-240" width="50" height="50" as="geometry" />
        </mxCell>
        <mxCell id="KquU0BusfMD63qp1bwJY-82" style="edgeStyle=orthogonalEdgeStyle;rounded=0;orthogonalLoop=1;jettySize=auto;html=1;entryX=0;entryY=0.5;entryDx=0;entryDy=0;exitX=1;exitY=0.5;exitDx=0;exitDy=0;" parent="1" source="KquU0BusfMD63qp1bwJY-59" target="KquU0BusfMD63qp1bwJY-84" edge="1">
          <mxGeometry relative="1" as="geometry">
            <mxPoint x="440" y="-140" as="targetPoint" />
            <Array as="points">
              <mxPoint x="450" y="-135" />
              <mxPoint x="450" y="-135" />
            </Array>
          </mxGeometry>
        </mxCell>
        <mxCell id="KquU0BusfMD63qp1bwJY-83" value="=" style="edgeLabel;html=1;align=center;verticalAlign=middle;resizable=0;points=[];" parent="KquU0BusfMD63qp1bwJY-82" vertex="1" connectable="0">
          <mxGeometry x="-0.2556" relative="1" as="geometry">
            <mxPoint x="20" y="-15" as="offset" />
          </mxGeometry>
        </mxCell>
        <mxCell id="KquU0BusfMD63qp1bwJY-59" value="Snot" style="ellipse;shape=doubleEllipse;whiteSpace=wrap;html=1;aspect=fixed;" parent="1" vertex="1">
          <mxGeometry x="280" y="-160" width="50" height="50" as="geometry" />
        </mxCell>
        <mxCell id="KquU0BusfMD63qp1bwJY-76" style="edgeStyle=orthogonalEdgeStyle;rounded=0;orthogonalLoop=1;jettySize=auto;html=1;entryX=0.5;entryY=1;entryDx=0;entryDy=0;exitX=1;exitY=0.5;exitDx=0;exitDy=0;curved=1;" parent="1" source="KquU0BusfMD63qp1bwJY-60" target="KquU0BusfMD63qp1bwJY-84" edge="1">
          <mxGeometry relative="1" as="geometry">
            <mxPoint x="360" y="20" as="sourcePoint" />
            <mxPoint x="440" y="-60" as="targetPoint" />
          </mxGeometry>
        </mxCell>
        <mxCell id="KquU0BusfMD63qp1bwJY-79" value="=" style="edgeLabel;html=1;align=center;verticalAlign=middle;resizable=0;points=[];" parent="KquU0BusfMD63qp1bwJY-76" vertex="1" connectable="0">
          <mxGeometry x="-0.1111" y="-1" relative="1" as="geometry">
            <mxPoint x="-27" y="-16" as="offset" />
          </mxGeometry>
        </mxCell>
        <mxCell id="KquU0BusfMD63qp1bwJY-60" value="Sor" style="ellipse;shape=doubleEllipse;whiteSpace=wrap;html=1;aspect=fixed;" parent="1" vertex="1">
          <mxGeometry x="280" y="-80" width="50" height="50" as="geometry" />
        </mxCell>
        <mxCell id="KquU0BusfMD63qp1bwJY-84" value="Srel" style="ellipse;shape=doubleEllipse;whiteSpace=wrap;html=1;aspect=fixed;" parent="1" vertex="1">
          <mxGeometry x="500" y="-160" width="50" height="50" as="geometry" />
        </mxCell>
        <mxCell id="KquU0BusfMD63qp1bwJY-93" style="edgeStyle=orthogonalEdgeStyle;rounded=0;orthogonalLoop=1;jettySize=auto;html=1;entryX=0;entryY=0.5;entryDx=0;entryDy=0;exitX=1;exitY=0.5;exitDx=0;exitDy=0;" parent="1" source="KquU0BusfMD63qp1bwJY-100" target="KquU0BusfMD63qp1bwJY-101" edge="1">
          <mxGeometry relative="1" as="geometry">
            <mxPoint x="90.50999999999999" y="600" as="sourcePoint" />
            <mxPoint x="170.51" y="600" as="targetPoint" />
          </mxGeometry>
        </mxCell>
        <mxCell id="KquU0BusfMD63qp1bwJY-141" value="&amp;lt;Digit&amp;gt; | &amp;lt;Letter&amp;gt;" style="edgeLabel;html=1;align=center;verticalAlign=middle;resizable=0;points=[];" parent="KquU0BusfMD63qp1bwJY-93" vertex="1" connectable="0">
          <mxGeometry x="0.2625" y="-1" relative="1" as="geometry">
            <mxPoint x="-21" y="-1" as="offset" />
          </mxGeometry>
        </mxCell>
        <mxCell id="KquU0BusfMD63qp1bwJY-91" style="edgeStyle=orthogonalEdgeStyle;rounded=0;orthogonalLoop=1;jettySize=auto;html=1;entryX=0;entryY=0.5;entryDx=0;entryDy=0;" parent="1" source="KquU0BusfMD63qp1bwJY-88" target="KquU0BusfMD63qp1bwJY-100" edge="1">
          <mxGeometry relative="1" as="geometry">
            <mxPoint x="150.51" y="640" as="targetPoint" />
          </mxGeometry>
        </mxCell>
        <mxCell id="KquU0BusfMD63qp1bwJY-136" value="&amp;lt;Digit&amp;gt; | &amp;lt;Letter&amp;gt;&amp;nbsp;" style="edgeLabel;html=1;align=center;verticalAlign=middle;resizable=0;points=[];" parent="KquU0BusfMD63qp1bwJY-91" vertex="1" connectable="0">
          <mxGeometry x="-0.2833" y="2" relative="1" as="geometry">
            <mxPoint x="7" y="2" as="offset" />
          </mxGeometry>
        </mxCell>
        <mxCell id="KquU0BusfMD63qp1bwJY-88" value="Sinv2" style="ellipse;whiteSpace=wrap;html=1;aspect=fixed;" parent="1" vertex="1">
          <mxGeometry x="-130" y="580" width="50" height="50" as="geometry" />
        </mxCell>
        <mxCell id="KquU0BusfMD63qp1bwJY-95" style="edgeStyle=orthogonalEdgeStyle;rounded=0;orthogonalLoop=1;jettySize=auto;html=1;exitX=1;exitY=0.5;exitDx=0;exitDy=0;entryX=0;entryY=0.5;entryDx=0;entryDy=0;" parent="1" source="KquU0BusfMD63qp1bwJY-101" target="KquU0BusfMD63qp1bwJY-102" edge="1">
          <mxGeometry relative="1" as="geometry">
            <mxPoint x="210.51" y="600" as="sourcePoint" />
            <mxPoint x="290.51" y="600" as="targetPoint" />
          </mxGeometry>
        </mxCell>
        <mxCell id="KquU0BusfMD63qp1bwJY-142" value="&amp;lt;Digit&amp;gt; | &amp;lt;Letter&amp;gt;&amp;nbsp;" style="edgeLabel;html=1;align=center;verticalAlign=middle;resizable=0;points=[];" parent="KquU0BusfMD63qp1bwJY-95" vertex="1" connectable="0">
          <mxGeometry x="-0.2475" y="-3" relative="1" as="geometry">
            <mxPoint x="20" y="-3" as="offset" />
          </mxGeometry>
        </mxCell>
        <mxCell id="KquU0BusfMD63qp1bwJY-97" style="edgeStyle=orthogonalEdgeStyle;rounded=0;orthogonalLoop=1;jettySize=auto;html=1;exitX=1;exitY=0.5;exitDx=0;exitDy=0;entryX=1;entryY=0.5;entryDx=0;entryDy=0;" parent="1" source="KquU0BusfMD63qp1bwJY-102" target="KquU0BusfMD63qp1bwJY-104" edge="1">
          <mxGeometry relative="1" as="geometry">
            <mxPoint x="330.51" y="600" as="sourcePoint" />
            <mxPoint x="760.51" y="670" as="targetPoint" />
            <Array as="points">
              <mxPoint x="510" y="605" />
              <mxPoint x="510" y="535" />
            </Array>
          </mxGeometry>
        </mxCell>
        <mxCell id="KquU0BusfMD63qp1bwJY-143" value="&amp;lt;Digit&amp;gt; | &amp;lt;Letter&amp;gt;" style="edgeLabel;html=1;align=center;verticalAlign=middle;resizable=0;points=[];" parent="KquU0BusfMD63qp1bwJY-97" vertex="1" connectable="0">
          <mxGeometry x="-0.3075" y="-1" relative="1" as="geometry">
            <mxPoint x="4" y="-26" as="offset" />
          </mxGeometry>
        </mxCell>
        <mxCell id="KquU0BusfMD63qp1bwJY-99" style="edgeStyle=orthogonalEdgeStyle;rounded=0;orthogonalLoop=1;jettySize=auto;html=1;exitX=0;exitY=0.5;exitDx=0;exitDy=0;entryX=1;entryY=0.5;entryDx=0;entryDy=0;" parent="1" source="KquU0BusfMD63qp1bwJY-104" target="KquU0BusfMD63qp1bwJY-105" edge="1">
          <mxGeometry relative="1" as="geometry">
            <mxPoint x="300.51" y="610" as="sourcePoint" />
            <Array as="points">
              <mxPoint x="398" y="535" />
            </Array>
          </mxGeometry>
        </mxCell>
        <mxCell id="KquU0BusfMD63qp1bwJY-144" value="&amp;lt;Digit&amp;gt; | &amp;lt;Letter&amp;gt;" style="edgeLabel;html=1;align=center;verticalAlign=middle;resizable=0;points=[];" parent="KquU0BusfMD63qp1bwJY-99" vertex="1" connectable="0">
          <mxGeometry x="0.5385" y="1" relative="1" as="geometry">
            <mxPoint x="35" y="-1" as="offset" />
          </mxGeometry>
        </mxCell>
        <mxCell id="KquU0BusfMD63qp1bwJY-98" value="ScolL" style="ellipse;shape=doubleEllipse;whiteSpace=wrap;html=1;aspect=fixed;" parent="1" vertex="1">
          <mxGeometry x="30" y="510" width="50" height="50" as="geometry" />
        </mxCell>
        <mxCell id="KquU0BusfMD63qp1bwJY-100" value="Sinv3" style="ellipse;whiteSpace=wrap;html=1;aspect=fixed;" parent="1" vertex="1">
          <mxGeometry x="40.50999999999999" y="580" width="50" height="50" as="geometry" />
        </mxCell>
        <mxCell id="KquU0BusfMD63qp1bwJY-101" value="Sinv4" style="ellipse;whiteSpace=wrap;html=1;aspect=fixed;" parent="1" vertex="1">
          <mxGeometry x="210.51" y="580" width="50" height="50" as="geometry" />
        </mxCell>
        <mxCell id="KquU0BusfMD63qp1bwJY-102" value="Sinv5" style="ellipse;whiteSpace=wrap;html=1;aspect=fixed;" parent="1" vertex="1">
          <mxGeometry x="390" y="580" width="50" height="50" as="geometry" />
        </mxCell>
        <mxCell id="KquU0BusfMD63qp1bwJY-104" value="Sinv6" style="ellipse;whiteSpace=wrap;html=1;aspect=fixed;" parent="1" vertex="1">
          <mxGeometry x="408" y="510" width="50" height="50" as="geometry" />
        </mxCell>
        <mxCell id="KquU0BusfMD63qp1bwJY-140" style="edgeStyle=orthogonalEdgeStyle;rounded=0;orthogonalLoop=1;jettySize=auto;html=1;" parent="1" source="KquU0BusfMD63qp1bwJY-105" target="KquU0BusfMD63qp1bwJY-98" edge="1">
          <mxGeometry relative="1" as="geometry" />
        </mxCell>
        <mxCell id="KquU0BusfMD63qp1bwJY-145" value="&amp;lt;Digit&amp;gt; | &amp;lt;Letter&amp;gt;" style="edgeLabel;html=1;align=center;verticalAlign=middle;resizable=0;points=[];" parent="KquU0BusfMD63qp1bwJY-140" vertex="1" connectable="0">
          <mxGeometry x="-0.2225" relative="1" as="geometry">
            <mxPoint x="-18" as="offset" />
          </mxGeometry>
        </mxCell>
        <mxCell id="KquU0BusfMD63qp1bwJY-105" value="Sinv7" style="ellipse;whiteSpace=wrap;html=1;aspect=fixed;" parent="1" vertex="1">
          <mxGeometry x="230" y="510" width="50" height="50" as="geometry" />
        </mxCell>
        <mxCell id="KquU0BusfMD63qp1bwJY-110" style="edgeStyle=orthogonalEdgeStyle;rounded=0;orthogonalLoop=1;jettySize=auto;html=1;curved=1;" parent="1" source="KquU0BusfMD63qp1bwJY-107" target="KquU0BusfMD63qp1bwJY-109" edge="1">
          <mxGeometry relative="1" as="geometry" />
        </mxCell>
        <mxCell id="KquU0BusfMD63qp1bwJY-114" value="&lt;font style=&quot;font-size: 14px;&quot;&gt;/&lt;/font&gt;" style="edgeLabel;html=1;align=center;verticalAlign=middle;resizable=0;points=[];" parent="KquU0BusfMD63qp1bwJY-110" vertex="1" connectable="0">
          <mxGeometry x="-0.2167" relative="1" as="geometry">
            <mxPoint x="25" y="-52" as="offset" />
          </mxGeometry>
        </mxCell>
        <mxCell id="KquU0BusfMD63qp1bwJY-119" style="edgeStyle=orthogonalEdgeStyle;rounded=0;orthogonalLoop=1;jettySize=auto;html=1;entryX=0;entryY=0.5;entryDx=0;entryDy=0;curved=1;" parent="1" source="KquU0BusfMD63qp1bwJY-107" target="KquU0BusfMD63qp1bwJY-134" edge="1">
          <mxGeometry relative="1" as="geometry">
            <mxPoint x="50.50999999999999" y="800" as="targetPoint" />
          </mxGeometry>
        </mxCell>
        <mxCell id="KquU0BusfMD63qp1bwJY-120" value="&lt;font style=&quot;font-size: 14px;&quot;&gt;*&lt;/font&gt;" style="edgeLabel;html=1;align=center;verticalAlign=middle;resizable=0;points=[];" parent="KquU0BusfMD63qp1bwJY-119" vertex="1" connectable="0">
          <mxGeometry x="0.3467" y="2" relative="1" as="geometry">
            <mxPoint x="27" y="-13" as="offset" />
          </mxGeometry>
        </mxCell>
        <mxCell id="KquU0BusfMD63qp1bwJY-107" value="Sdiv" style="ellipse;shape=doubleEllipse;whiteSpace=wrap;html=1;aspect=fixed;" parent="1" vertex="1">
          <mxGeometry x="-140" y="720" width="50" height="50" as="geometry" />
        </mxCell>
        <mxCell id="KquU0BusfMD63qp1bwJY-112" style="edgeStyle=orthogonalEdgeStyle;rounded=0;orthogonalLoop=1;jettySize=auto;html=1;" parent="1" source="KquU0BusfMD63qp1bwJY-109" target="KquU0BusfMD63qp1bwJY-111" edge="1">
          <mxGeometry relative="1" as="geometry" />
        </mxCell>
        <mxCell id="KquU0BusfMD63qp1bwJY-117" value="&amp;lt;TokenDelimEnter&amp;gt;" style="edgeLabel;html=1;align=center;verticalAlign=middle;resizable=0;points=[];" parent="KquU0BusfMD63qp1bwJY-112" vertex="1" connectable="0">
          <mxGeometry x="0.3" y="-1" relative="1" as="geometry">
            <mxPoint x="-16" y="-16" as="offset" />
          </mxGeometry>
        </mxCell>
        <mxCell id="KquU0BusfMD63qp1bwJY-109" value="Scom1" style="ellipse;shape=doubleEllipse;whiteSpace=wrap;html=1;aspect=fixed;" parent="1" vertex="1">
          <mxGeometry x="30" y="680" width="50" height="50" as="geometry" />
        </mxCell>
        <mxCell id="KquU0BusfMD63qp1bwJY-111" value="Scom2" style="ellipse;shape=doubleEllipse;whiteSpace=wrap;html=1;aspect=fixed;" parent="1" vertex="1">
          <mxGeometry x="220" y="680" width="50" height="50" as="geometry" />
        </mxCell>
        <mxCell id="KquU0BusfMD63qp1bwJY-115" style="edgeStyle=orthogonalEdgeStyle;rounded=0;orthogonalLoop=1;jettySize=auto;html=1;entryX=0.5;entryY=1;entryDx=0;entryDy=0;jumpStyle=arc;curved=1;" parent="1" source="KquU0BusfMD63qp1bwJY-109" target="KquU0BusfMD63qp1bwJY-109" edge="1">
          <mxGeometry relative="1" as="geometry" />
        </mxCell>
        <mxCell id="KquU0BusfMD63qp1bwJY-116" value="Anything" style="edgeLabel;html=1;align=center;verticalAlign=middle;resizable=0;points=[];" parent="KquU0BusfMD63qp1bwJY-115" vertex="1" connectable="0">
          <mxGeometry x="-0.6733" y="-1" relative="1" as="geometry">
            <mxPoint x="7" as="offset" />
          </mxGeometry>
        </mxCell>
        <mxCell id="KquU0BusfMD63qp1bwJY-122" style="edgeStyle=orthogonalEdgeStyle;rounded=0;orthogonalLoop=1;jettySize=auto;html=1;entryX=0;entryY=0.5;entryDx=0;entryDy=0;exitX=1;exitY=0.5;exitDx=0;exitDy=0;" parent="1" source="KquU0BusfMD63qp1bwJY-134" target="KquU0BusfMD63qp1bwJY-135" edge="1">
          <mxGeometry relative="1" as="geometry">
            <mxPoint x="92.5" y="817" as="sourcePoint" />
            <mxPoint x="172.5" y="817" as="targetPoint" />
          </mxGeometry>
        </mxCell>
        <mxCell id="KquU0BusfMD63qp1bwJY-127" value="&lt;font style=&quot;font-size: 14px;&quot;&gt;*&lt;/font&gt;" style="edgeLabel;html=1;align=center;verticalAlign=middle;resizable=0;points=[];" parent="KquU0BusfMD63qp1bwJY-122" vertex="1" connectable="0">
          <mxGeometry x="-0.1911" y="-1" relative="1" as="geometry">
            <mxPoint x="6" y="-18" as="offset" />
          </mxGeometry>
        </mxCell>
        <mxCell id="KquU0BusfMD63qp1bwJY-124" style="edgeStyle=orthogonalEdgeStyle;rounded=0;orthogonalLoop=1;jettySize=auto;html=1;entryX=0.5;entryY=1;entryDx=0;entryDy=0;jumpStyle=arc;exitX=0.5;exitY=0;exitDx=0;exitDy=0;curved=1;" parent="1" source="KquU0BusfMD63qp1bwJY-134" target="KquU0BusfMD63qp1bwJY-134" edge="1">
          <mxGeometry relative="1" as="geometry">
            <mxPoint x="72.5" y="797" as="sourcePoint" />
            <mxPoint x="72.5" y="837" as="targetPoint" />
          </mxGeometry>
        </mxCell>
        <mxCell id="KquU0BusfMD63qp1bwJY-126" value="Anything" style="edgeLabel;html=1;align=center;verticalAlign=middle;resizable=0;points=[];" parent="KquU0BusfMD63qp1bwJY-124" vertex="1" connectable="0">
          <mxGeometry x="-0.6867" y="2" relative="1" as="geometry">
            <mxPoint x="9" as="offset" />
          </mxGeometry>
        </mxCell>
        <mxCell id="KquU0BusfMD63qp1bwJY-129" style="edgeStyle=orthogonalEdgeStyle;rounded=0;orthogonalLoop=1;jettySize=auto;html=1;exitX=0.5;exitY=1;exitDx=0;exitDy=0;entryX=1;entryY=1;entryDx=0;entryDy=0;curved=1;" parent="1" source="KquU0BusfMD63qp1bwJY-135" target="KquU0BusfMD63qp1bwJY-134" edge="1">
          <mxGeometry relative="1" as="geometry">
            <mxPoint x="80" y="920" as="targetPoint" />
            <Array as="points">
              <mxPoint x="194" y="836" />
              <mxPoint x="190" y="836" />
              <mxPoint x="190" y="890" />
              <mxPoint x="65" y="890" />
            </Array>
            <mxPoint x="210" y="920" as="sourcePoint" />
          </mxGeometry>
        </mxCell>
        <mxCell id="KquU0BusfMD63qp1bwJY-130" value="Anything" style="edgeLabel;html=1;align=center;verticalAlign=middle;resizable=0;points=[];" parent="KquU0BusfMD63qp1bwJY-129" vertex="1" connectable="0">
          <mxGeometry x="-0.3333" relative="1" as="geometry">
            <mxPoint x="-33" as="offset" />
          </mxGeometry>
        </mxCell>
        <mxCell id="KquU0BusfMD63qp1bwJY-132" style="edgeStyle=orthogonalEdgeStyle;rounded=0;orthogonalLoop=1;jettySize=auto;html=1;exitX=1;exitY=0.5;exitDx=0;exitDy=0;" parent="1" source="KquU0BusfMD63qp1bwJY-135" target="KquU0BusfMD63qp1bwJY-131" edge="1">
          <mxGeometry relative="1" as="geometry" />
        </mxCell>
        <mxCell id="KquU0BusfMD63qp1bwJY-133" value="&lt;font style=&quot;font-size: 14px;&quot;&gt;/&lt;/font&gt;" style="edgeLabel;html=1;align=center;verticalAlign=middle;resizable=0;points=[];" parent="KquU0BusfMD63qp1bwJY-132" vertex="1" connectable="0">
          <mxGeometry x="-0.2333" y="-2" relative="1" as="geometry">
            <mxPoint x="15" y="-19" as="offset" />
          </mxGeometry>
        </mxCell>
        <mxCell id="KquU0BusfMD63qp1bwJY-131" value="Scom3" style="ellipse;shape=doubleEllipse;whiteSpace=wrap;html=1;aspect=fixed;" parent="1" vertex="1">
          <mxGeometry x="289" y="790.5" width="53" height="53" as="geometry" />
        </mxCell>
        <mxCell id="KquU0BusfMD63qp1bwJY-134" value="Sinvc1" style="ellipse;whiteSpace=wrap;html=1;aspect=fixed;" parent="1" vertex="1">
          <mxGeometry x="21.99000000000001" y="792" width="50" height="50" as="geometry" />
        </mxCell>
        <mxCell id="KquU0BusfMD63qp1bwJY-135" value="Sinvc2" style="ellipse;whiteSpace=wrap;html=1;aspect=fixed;" parent="1" vertex="1">
          <mxGeometry x="167" y="790.5" width="53" height="53" as="geometry" />
        </mxCell>
        <mxCell id="KquU0BusfMD63qp1bwJY-150" style="edgeStyle=orthogonalEdgeStyle;rounded=0;orthogonalLoop=1;jettySize=auto;html=1;" parent="1" source="KquU0BusfMD63qp1bwJY-146" target="KquU0BusfMD63qp1bwJY-149" edge="1">
          <mxGeometry relative="1" as="geometry" />
        </mxCell>
        <mxCell id="KquU0BusfMD63qp1bwJY-151" value="_" style="edgeLabel;html=1;align=center;verticalAlign=middle;resizable=0;points=[];" parent="KquU0BusfMD63qp1bwJY-150" vertex="1" connectable="0">
          <mxGeometry x="-0.1813" relative="1" as="geometry">
            <mxPoint x="-6" y="-10" as="offset" />
          </mxGeometry>
        </mxCell>
        <mxCell id="KquU0BusfMD63qp1bwJY-146" value="Sinv8" style="ellipse;whiteSpace=wrap;html=1;aspect=fixed;" parent="1" vertex="1">
          <mxGeometry x="-270" y="905" width="50" height="50" as="geometry" />
        </mxCell>
        <mxCell id="KquU0BusfMD63qp1bwJY-153" style="edgeStyle=orthogonalEdgeStyle;rounded=0;orthogonalLoop=1;jettySize=auto;html=1;" parent="1" source="KquU0BusfMD63qp1bwJY-149" target="KquU0BusfMD63qp1bwJY-152" edge="1">
          <mxGeometry relative="1" as="geometry" />
        </mxCell>
        <mxCell id="KquU0BusfMD63qp1bwJY-160" value="&amp;lt;Letter&amp;gt;" style="edgeLabel;html=1;align=center;verticalAlign=middle;resizable=0;points=[];" parent="KquU0BusfMD63qp1bwJY-153" vertex="1" connectable="0">
          <mxGeometry x="-0.2666" relative="1" as="geometry">
            <mxPoint x="1" as="offset" />
          </mxGeometry>
        </mxCell>
        <mxCell id="KquU0BusfMD63qp1bwJY-149" value="Sinv9" style="ellipse;whiteSpace=wrap;html=1;aspect=fixed;" parent="1" vertex="1">
          <mxGeometry x="-150" y="905" width="50" height="50" as="geometry" />
        </mxCell>
        <mxCell id="KquU0BusfMD63qp1bwJY-155" style="edgeStyle=orthogonalEdgeStyle;rounded=0;orthogonalLoop=1;jettySize=auto;html=1;" parent="1" source="KquU0BusfMD63qp1bwJY-152" target="KquU0BusfMD63qp1bwJY-154" edge="1">
          <mxGeometry relative="1" as="geometry" />
        </mxCell>
        <mxCell id="KquU0BusfMD63qp1bwJY-161" value="&amp;lt;Letter&amp;gt;" style="edgeLabel;html=1;align=center;verticalAlign=middle;resizable=0;points=[];" parent="KquU0BusfMD63qp1bwJY-155" vertex="1" connectable="0">
          <mxGeometry x="-0.3135" y="-1" relative="1" as="geometry">
            <mxPoint x="3" y="-1" as="offset" />
          </mxGeometry>
        </mxCell>
        <mxCell id="KquU0BusfMD63qp1bwJY-152" value="Sinv10" style="ellipse;whiteSpace=wrap;html=1;aspect=fixed;" parent="1" vertex="1">
          <mxGeometry x="-20" y="905" width="50" height="50" as="geometry" />
        </mxCell>
        <mxCell id="KquU0BusfMD63qp1bwJY-157" style="edgeStyle=orthogonalEdgeStyle;rounded=0;orthogonalLoop=1;jettySize=auto;html=1;" parent="1" source="KquU0BusfMD63qp1bwJY-154" target="KquU0BusfMD63qp1bwJY-156" edge="1">
          <mxGeometry relative="1" as="geometry" />
        </mxCell>
        <mxCell id="KquU0BusfMD63qp1bwJY-162" value="&amp;lt;Letter&amp;gt;" style="edgeLabel;html=1;align=center;verticalAlign=middle;resizable=0;points=[];" parent="KquU0BusfMD63qp1bwJY-157" vertex="1" connectable="0">
          <mxGeometry x="-0.3291" y="-2" relative="1" as="geometry">
            <mxPoint x="3" y="-2" as="offset" />
          </mxGeometry>
        </mxCell>
        <mxCell id="KquU0BusfMD63qp1bwJY-154" value="Sinv11" style="ellipse;whiteSpace=wrap;html=1;aspect=fixed;" parent="1" vertex="1">
          <mxGeometry x="110" y="905" width="50" height="50" as="geometry" />
        </mxCell>
        <mxCell id="KquU0BusfMD63qp1bwJY-159" style="edgeStyle=orthogonalEdgeStyle;rounded=0;orthogonalLoop=1;jettySize=auto;html=1;entryX=0;entryY=0.5;entryDx=0;entryDy=0;" parent="1" source="KquU0BusfMD63qp1bwJY-156" target="KquU0BusfMD63qp1bwJY-163" edge="1">
          <mxGeometry relative="1" as="geometry">
            <mxPoint x="421.88" y="930" as="targetPoint" />
          </mxGeometry>
        </mxCell>
        <mxCell id="KquU0BusfMD63qp1bwJY-164" value="&amp;lt;Letter&amp;gt;" style="edgeLabel;html=1;align=center;verticalAlign=middle;resizable=0;points=[];" parent="KquU0BusfMD63qp1bwJY-159" vertex="1" connectable="0">
          <mxGeometry x="-0.3604" y="-1" relative="1" as="geometry">
            <mxPoint x="15" y="-1" as="offset" />
          </mxGeometry>
        </mxCell>
        <mxCell id="KquU0BusfMD63qp1bwJY-156" value="Sinv12" style="ellipse;whiteSpace=wrap;html=1;aspect=fixed;" parent="1" vertex="1">
          <mxGeometry x="237.5" y="905" width="50" height="50" as="geometry" />
        </mxCell>
        <mxCell id="KquU0BusfMD63qp1bwJY-166" style="edgeStyle=orthogonalEdgeStyle;rounded=0;orthogonalLoop=1;jettySize=auto;html=1;" parent="1" source="KquU0BusfMD63qp1bwJY-163" target="KquU0BusfMD63qp1bwJY-165" edge="1">
          <mxGeometry relative="1" as="geometry" />
        </mxCell>
        <mxCell id="KquU0BusfMD63qp1bwJY-169" value="&amp;lt;Letter&amp;gt;" style="edgeLabel;html=1;align=center;verticalAlign=middle;resizable=0;points=[];" parent="KquU0BusfMD63qp1bwJY-166" vertex="1" connectable="0">
          <mxGeometry x="-0.1815" y="2" relative="1" as="geometry">
            <mxPoint y="2" as="offset" />
          </mxGeometry>
        </mxCell>
        <mxCell id="KquU0BusfMD63qp1bwJY-163" value="Ssp1" style="ellipse;shape=doubleEllipse;whiteSpace=wrap;html=1;aspect=fixed;" parent="1" vertex="1">
          <mxGeometry x="370" y="905" width="50" height="50" as="geometry" />
        </mxCell>
        <mxCell id="KquU0BusfMD63qp1bwJY-168" style="edgeStyle=orthogonalEdgeStyle;rounded=0;orthogonalLoop=1;jettySize=auto;html=1;" parent="1" source="KquU0BusfMD63qp1bwJY-165" target="KquU0BusfMD63qp1bwJY-167" edge="1">
          <mxGeometry relative="1" as="geometry" />
        </mxCell>
        <mxCell id="KquU0BusfMD63qp1bwJY-170" value="&amp;lt;Letter&amp;gt;" style="edgeLabel;html=1;align=center;verticalAlign=middle;resizable=0;points=[];" parent="KquU0BusfMD63qp1bwJY-168" vertex="1" connectable="0">
          <mxGeometry x="-0.2909" y="-1" relative="1" as="geometry">
            <mxPoint x="12" y="-1" as="offset" />
          </mxGeometry>
        </mxCell>
        <mxCell id="KquU0BusfMD63qp1bwJY-165" value="Ssp2" style="ellipse;shape=doubleEllipse;whiteSpace=wrap;html=1;aspect=fixed;" parent="1" vertex="1">
          <mxGeometry x="500" y="905" width="50" height="50" as="geometry" />
        </mxCell>
        <mxCell id="KquU0BusfMD63qp1bwJY-167" value="Ssp3" style="ellipse;shape=doubleEllipse;whiteSpace=wrap;html=1;aspect=fixed;" parent="1" vertex="1">
          <mxGeometry x="630" y="905" width="50" height="50" as="geometry" />
        </mxCell>
        <mxCell id="KquU0BusfMD63qp1bwJY-171" style="edgeStyle=orthogonalEdgeStyle;rounded=0;orthogonalLoop=1;jettySize=auto;html=1;curved=1;exitX=0.5;exitY=1;exitDx=0;exitDy=0;" parent="1" source="KquU0BusfMD63qp1bwJY-135" edge="1">
          <mxGeometry relative="1" as="geometry">
            <mxPoint x="194" y="790" as="targetPoint" />
          </mxGeometry>
        </mxCell>
        <mxCell id="KquU0BusfMD63qp1bwJY-172" value="&lt;font style=&quot;font-size: 14px;&quot;&gt;*&lt;/font&gt;" style="edgeLabel;html=1;align=center;verticalAlign=middle;resizable=0;points=[];" parent="KquU0BusfMD63qp1bwJY-171" vertex="1" connectable="0">
          <mxGeometry x="-0.6887" relative="1" as="geometry">
            <mxPoint x="2" y="-103" as="offset" />
          </mxGeometry>
        </mxCell>
        <mxCell id="mR5Z6gRy-ZtZRyUcgu2F-2" value="S0" style="ellipse;whiteSpace=wrap;html=1;aspect=fixed;" parent="1" vertex="1">
          <mxGeometry x="-270" y="650" width="50" height="50" as="geometry" />
        </mxCell>
        <mxCell id="RtgIJafnp28x_mlKteZ2-1" value="" style="endArrow=classic;html=1;rounded=0;fontSize=14;curved=1;entryX=0.5;entryY=0;entryDx=0;entryDy=0;strokeWidth=2;" parent="1" target="GA5ly7tuo-fLt8JaKTmH-1" edge="1">
          <mxGeometry width="50" height="50" relative="1" as="geometry">
            <mxPoint x="80" y="70" as="sourcePoint" />
            <mxPoint x="90" y="10" as="targetPoint" />
          </mxGeometry>
        </mxCell>
        <mxCell id="RtgIJafnp28x_mlKteZ2-2" value="" style="endArrow=classic;html=1;rounded=0;fontSize=14;curved=1;entryX=0.5;entryY=0;entryDx=0;entryDy=0;strokeWidth=2;" parent="1" target="mR5Z6gRy-ZtZRyUcgu2F-2" edge="1">
          <mxGeometry x="1" y="-97" width="50" height="50" relative="1" as="geometry">
            <mxPoint x="-280" y="590" as="sourcePoint" />
            <mxPoint x="-252.67766952966372" y="647.3223304703363" as="targetPoint" />
            <mxPoint x="62" y="56" as="offset" />
          </mxGeometry>
        </mxCell>
      </root>
    </mxGraphModel>
  </diagram>
  <diagram id="4dyAdHqFdhVnvw69-mWB" name="Page-2">
    <mxGraphModel dx="3502" dy="2874" grid="1" gridSize="10" guides="1" tooltips="1" connect="1" arrows="1" fold="1" page="1" pageScale="1" pageWidth="1169" pageHeight="1654" math="0" shadow="0">
      <root>
        <mxCell id="0" />
        <mxCell id="1" parent="0" />
        <mxCell id="go2y35mZsy017kKOZNHy-2" value="ASTNode" style="swimlane;fontStyle=1;align=center;verticalAlign=top;childLayout=stackLayout;horizontal=1;startSize=26;horizontalStack=0;resizeParent=1;resizeParentMax=0;resizeLast=0;collapsible=1;marginBottom=0;whiteSpace=wrap;html=1;" vertex="1" parent="1">
          <mxGeometry x="-930" y="-460" width="270" height="110" as="geometry" />
        </mxCell>
        <mxCell id="go2y35mZsy017kKOZNHy-4" value="" style="line;strokeWidth=1;fillColor=none;align=left;verticalAlign=middle;spacingTop=-1;spacingLeft=3;spacingRight=3;rotatable=0;labelPosition=right;points=[];portConstraint=eastwest;strokeColor=inherit;" vertex="1" parent="go2y35mZsy017kKOZNHy-2">
          <mxGeometry y="26" width="270" height="8" as="geometry" />
        </mxCell>
        <mxCell id="go2y35mZsy017kKOZNHy-5" value="ASTNode()=default;&lt;br style=&quot;border-color: var(--border-color);&quot;&gt;virtual void accept(VisitorNode * visitor);&lt;br style=&quot;border-color: var(--border-color);&quot;&gt;~ASTNode()=default;" style="text;strokeColor=none;fillColor=none;align=left;verticalAlign=top;spacingLeft=4;spacingRight=4;overflow=hidden;rotatable=0;points=[[0,0.5],[1,0.5]];portConstraint=eastwest;whiteSpace=wrap;html=1;" vertex="1" parent="go2y35mZsy017kKOZNHy-2">
          <mxGeometry y="34" width="270" height="76" as="geometry" />
        </mxCell>
        <mxCell id="go2y35mZsy017kKOZNHy-10" style="rounded=0;orthogonalLoop=1;jettySize=auto;html=1;exitX=0;exitY=-0.043;exitDx=0;exitDy=0;strokeColor=#000000;endArrow=block;endFill=0;strokeWidth=1;endSize=8;edgeStyle=orthogonalEdgeStyle;exitPerimeter=0;" edge="1" parent="1" source="go2y35mZsy017kKOZNHy-9" target="go2y35mZsy017kKOZNHy-5">
          <mxGeometry relative="1" as="geometry">
            <mxPoint x="-970" y="-300" as="targetPoint" />
            <Array as="points">
              <mxPoint x="-620" y="-1013" />
              <mxPoint x="-620" y="-388" />
            </Array>
          </mxGeometry>
        </mxCell>
        <mxCell id="go2y35mZsy017kKOZNHy-6" value="ASTProgram" style="swimlane;fontStyle=1;align=center;verticalAlign=top;childLayout=stackLayout;horizontal=1;startSize=26;horizontalStack=0;resizeParent=1;resizeParentMax=0;resizeLast=0;collapsible=1;marginBottom=0;whiteSpace=wrap;html=1;" vertex="1" parent="1">
          <mxGeometry x="-550" y="-1080" width="400" height="130" as="geometry" />
        </mxCell>
        <mxCell id="go2y35mZsy017kKOZNHy-8" value="vector&amp;lt;shared_ptr&amp;lt;ASTStatement&amp;gt;&amp;gt; program{};" style="text;strokeColor=default;fillColor=none;align=left;verticalAlign=top;spacingLeft=4;spacingRight=4;overflow=hidden;rotatable=0;points=[[0,0.5],[1,0.5]];portConstraint=eastwest;whiteSpace=wrap;html=1;perimeterSpacing=0;" vertex="1" parent="go2y35mZsy017kKOZNHy-6">
          <mxGeometry y="26" width="400" height="44" as="geometry" />
        </mxCell>
        <mxCell id="go2y35mZsy017kKOZNHy-9" value="&lt;div&gt;explicit ASTProgram( vector&amp;lt;shared_ptr&amp;lt;ASTStatement&amp;gt;&amp;gt; program);&lt;/div&gt;&lt;div&gt;void accept(VisitorNode * visitor) override;&lt;/div&gt;&lt;div&gt;&lt;span style=&quot;background-color: initial;&quot;&gt;&amp;nbsp;~ASTProgram();&lt;/span&gt;&lt;/div&gt;" style="text;strokeColor=none;fillColor=none;align=left;verticalAlign=top;spacingLeft=4;spacingRight=4;overflow=hidden;rotatable=0;points=[[0,0.5],[1,0.5]];portConstraint=eastwest;whiteSpace=wrap;html=1;" vertex="1" parent="go2y35mZsy017kKOZNHy-6">
          <mxGeometry y="70" width="400" height="60" as="geometry" />
        </mxCell>
        <mxCell id="go2y35mZsy017kKOZNHy-13" value="ASTStatement" style="swimlane;fontStyle=1;align=center;verticalAlign=top;childLayout=stackLayout;horizontal=1;startSize=26;horizontalStack=0;resizeParent=1;resizeParentMax=0;resizeLast=0;collapsible=1;marginBottom=0;whiteSpace=wrap;html=1;" vertex="1" parent="1">
          <mxGeometry x="-480" y="-730" width="260" height="106" as="geometry" />
        </mxCell>
        <mxCell id="go2y35mZsy017kKOZNHy-14" value="" style="text;strokeColor=default;fillColor=none;align=left;verticalAlign=top;spacingLeft=4;spacingRight=4;overflow=hidden;rotatable=0;points=[[0,0.5],[1,0.5]];portConstraint=eastwest;whiteSpace=wrap;html=1;perimeterSpacing=0;" vertex="1" parent="go2y35mZsy017kKOZNHy-13">
          <mxGeometry y="26" width="260" height="4" as="geometry" />
        </mxCell>
        <mxCell id="go2y35mZsy017kKOZNHy-15" value="&lt;div&gt;ASTStatement()=default;&lt;/div&gt;&lt;div&gt;void accept(VisitorNode * visitor) override;&lt;/div&gt;&lt;div&gt;&amp;nbsp;~ASTStatement()=default;&lt;/div&gt;" style="text;strokeColor=none;fillColor=none;align=left;verticalAlign=top;spacingLeft=4;spacingRight=4;overflow=hidden;rotatable=0;points=[[0,0.5],[1,0.5]];portConstraint=eastwest;whiteSpace=wrap;html=1;" vertex="1" parent="go2y35mZsy017kKOZNHy-13">
          <mxGeometry y="30" width="260" height="76" as="geometry" />
        </mxCell>
        <mxCell id="go2y35mZsy017kKOZNHy-16" style="rounded=0;orthogonalLoop=1;jettySize=auto;html=1;strokeColor=#000000;endArrow=block;endFill=0;strokeWidth=1;endSize=8;edgeStyle=orthogonalEdgeStyle;exitX=0.5;exitY=0;exitDx=0;exitDy=0;" edge="1" parent="1" source="go2y35mZsy017kKOZNHy-13" target="go2y35mZsy017kKOZNHy-6">
          <mxGeometry relative="1" as="geometry">
            <mxPoint x="-390" y="-880" as="sourcePoint" />
            <mxPoint x="-350" y="-850" as="targetPoint" />
            <Array as="points">
              <mxPoint x="-350" y="-770" />
            </Array>
          </mxGeometry>
        </mxCell>
        <mxCell id="go2y35mZsy017kKOZNHy-17" value="ASTBlock" style="swimlane;fontStyle=1;align=center;verticalAlign=top;childLayout=stackLayout;horizontal=1;startSize=26;horizontalStack=0;resizeParent=1;resizeParentMax=0;resizeLast=0;collapsible=1;marginBottom=0;whiteSpace=wrap;html=1;" vertex="1" parent="1">
          <mxGeometry x="-20" y="270" width="410" height="150" as="geometry" />
        </mxCell>
        <mxCell id="go2y35mZsy017kKOZNHy-18" value="vector&amp;lt;shared_ptr&amp;lt;ASTStatement&amp;gt;&amp;gt; statements;" style="text;strokeColor=default;fillColor=none;align=left;verticalAlign=top;spacingLeft=4;spacingRight=4;overflow=hidden;rotatable=0;points=[[0,0.5],[1,0.5]];portConstraint=eastwest;whiteSpace=wrap;html=1;perimeterSpacing=0;" vertex="1" parent="go2y35mZsy017kKOZNHy-17">
          <mxGeometry y="26" width="410" height="44" as="geometry" />
        </mxCell>
        <mxCell id="go2y35mZsy017kKOZNHy-19" value="&lt;div&gt;&amp;nbsp;ASTBlock()=default;&lt;/div&gt;&lt;div&gt;&amp;nbsp;explicit ASTBlock( vector&amp;lt;shared_ptr&amp;lt;ASTStatement&amp;gt;&amp;gt; statements);&lt;/div&gt;&lt;div&gt;&amp;nbsp;void accept(VisitorNode * visitor) override;&lt;/div&gt;&lt;div&gt;&amp;nbsp;~ASTBlock();&lt;/div&gt;" style="text;strokeColor=none;fillColor=none;align=left;verticalAlign=top;spacingLeft=4;spacingRight=4;overflow=hidden;rotatable=0;points=[[0,0.5],[1,0.5]];portConstraint=eastwest;whiteSpace=wrap;html=1;" vertex="1" parent="go2y35mZsy017kKOZNHy-17">
          <mxGeometry y="70" width="410" height="80" as="geometry" />
        </mxCell>
        <mxCell id="go2y35mZsy017kKOZNHy-21" value="ASTWhileStatement" style="swimlane;fontStyle=1;align=center;verticalAlign=top;childLayout=stackLayout;horizontal=1;startSize=26;horizontalStack=0;resizeParent=1;resizeParentMax=0;resizeLast=0;collapsible=1;marginBottom=0;whiteSpace=wrap;html=1;" vertex="1" parent="1">
          <mxGeometry x="-20" y="-420" width="510" height="140" as="geometry" />
        </mxCell>
        <mxCell id="go2y35mZsy017kKOZNHy-22" value="&lt;div&gt;shared_ptr&amp;lt;ASTBlock&amp;gt; block;&lt;/div&gt;&lt;div&gt;shared_ptr&amp;lt;ASTExpr&amp;gt; expression;&lt;/div&gt;" style="text;strokeColor=default;fillColor=none;align=left;verticalAlign=top;spacingLeft=4;spacingRight=4;overflow=hidden;rotatable=0;points=[[0,0.5],[1,0.5]];portConstraint=eastwest;whiteSpace=wrap;html=1;perimeterSpacing=0;" vertex="1" parent="go2y35mZsy017kKOZNHy-21">
          <mxGeometry y="26" width="510" height="44" as="geometry" />
        </mxCell>
        <mxCell id="go2y35mZsy017kKOZNHy-23" value="&lt;div&gt;ASTWhileStatement()=default;&lt;/div&gt;&lt;div&gt;ASTWhileStatement( shared_ptr&amp;lt;ASTExpr&amp;gt; expression, shared_ptr&amp;lt;ASTBlock&amp;gt; block);&lt;/div&gt;void accept(VisitorNode * visitor) override;~ASTWhileStatement();&lt;br&gt;~ASTWhileStatement();" style="text;strokeColor=none;fillColor=none;align=left;verticalAlign=top;spacingLeft=4;spacingRight=4;overflow=hidden;rotatable=0;points=[[0,0.5],[1,0.5]];portConstraint=eastwest;whiteSpace=wrap;html=1;" vertex="1" parent="go2y35mZsy017kKOZNHy-21">
          <mxGeometry y="70" width="510" height="70" as="geometry" />
        </mxCell>
        <mxCell id="go2y35mZsy017kKOZNHy-26" value="ASTForStatement" style="swimlane;fontStyle=1;align=center;verticalAlign=top;childLayout=stackLayout;horizontal=1;startSize=26;horizontalStack=0;resizeParent=1;resizeParentMax=0;resizeLast=0;collapsible=1;marginBottom=0;whiteSpace=wrap;html=1;" vertex="1" parent="1">
          <mxGeometry x="-20" y="-1380" width="950" height="170" as="geometry" />
        </mxCell>
        <mxCell id="go2y35mZsy017kKOZNHy-27" value="&lt;div style=&quot;border-color: var(--border-color);&quot;&gt;&amp;nbsp;shared_ptr&amp;lt;ASTExpr&amp;gt; expression;&lt;/div&gt;&lt;div style=&quot;border-color: var(--border-color);&quot;&gt;&amp;nbsp;shared_ptr&amp;lt;ASTBlock&amp;gt; block;&lt;/div&gt;&lt;div style=&quot;border-color: var(--border-color);&quot;&gt;&amp;nbsp;shared_ptr&amp;lt;ASTAssignment&amp;gt; assignment;&lt;/div&gt;&lt;div style=&quot;border-color: var(--border-color);&quot;&gt;&amp;nbsp;shared_ptr&amp;lt;ASTVariableDecl&amp;gt; variableDecl;&lt;/div&gt;" style="text;strokeColor=default;fillColor=none;align=left;verticalAlign=top;spacingLeft=4;spacingRight=4;overflow=hidden;rotatable=0;points=[[0,0.5],[1,0.5]];portConstraint=eastwest;whiteSpace=wrap;html=1;perimeterSpacing=0;" vertex="1" parent="go2y35mZsy017kKOZNHy-26">
          <mxGeometry y="26" width="950" height="74" as="geometry" />
        </mxCell>
        <mxCell id="go2y35mZsy017kKOZNHy-28" value="&lt;div&gt;ASTForStatement()=default;&lt;/div&gt;&lt;div&gt;ASTForStatement( shared_ptr&amp;lt;ASTExpr&amp;gt; expression, shared_ptr&amp;lt;ASTAssignment&amp;gt; assignment, shared_ptr&amp;lt;ASTVariableDecl&amp;gt; variableDecl , shared_ptr&amp;lt;ASTBlock&amp;gt; block);&lt;/div&gt;&lt;div&gt;void accept(VisitorNode * visitor) override;&lt;/div&gt;&lt;div&gt;~ASTForStatement();&lt;/div&gt;" style="text;strokeColor=none;fillColor=none;align=left;verticalAlign=top;spacingLeft=4;spacingRight=4;overflow=hidden;rotatable=0;points=[[0,0.5],[1,0.5]];portConstraint=eastwest;whiteSpace=wrap;html=1;" vertex="1" parent="go2y35mZsy017kKOZNHy-26">
          <mxGeometry y="100" width="950" height="70" as="geometry" />
        </mxCell>
        <mxCell id="go2y35mZsy017kKOZNHy-30" value="ASTIfStatement" style="swimlane;fontStyle=1;align=center;verticalAlign=top;childLayout=stackLayout;horizontal=1;startSize=26;horizontalStack=0;resizeParent=1;resizeParentMax=0;resizeLast=0;collapsible=1;marginBottom=0;whiteSpace=wrap;html=1;" vertex="1" parent="1">
          <mxGeometry x="-20" y="-600" width="700" height="150" as="geometry" />
        </mxCell>
        <mxCell id="go2y35mZsy017kKOZNHy-31" value="&lt;div style=&quot;border-color: var(--border-color);&quot;&gt;shared_ptr&amp;lt;ASTBlock&amp;gt; firstBlock;&lt;/div&gt;&lt;div style=&quot;border-color: var(--border-color);&quot;&gt;shared_ptr&amp;lt;ASTBlock&amp;gt; secondBlock;&lt;/div&gt;&lt;div style=&quot;border-color: var(--border-color);&quot;&gt;shared_ptr&amp;lt;ASTExpr&amp;gt; expression;&lt;/div&gt;" style="text;strokeColor=default;fillColor=none;align=left;verticalAlign=top;spacingLeft=4;spacingRight=4;overflow=hidden;rotatable=0;points=[[0,0.5],[1,0.5]];portConstraint=eastwest;whiteSpace=wrap;html=1;perimeterSpacing=0;" vertex="1" parent="go2y35mZsy017kKOZNHy-30">
          <mxGeometry y="26" width="700" height="54" as="geometry" />
        </mxCell>
        <mxCell id="go2y35mZsy017kKOZNHy-32" value="&lt;div&gt;ASTIfStatement()=default;&lt;/div&gt;&lt;div&gt;ASTIfStatement( shared_ptr&amp;lt;ASTExpr&amp;gt; expression, shared_ptr&amp;lt;ASTBlock&amp;gt; firstBlock, shared_ptr&amp;lt;ASTBlock&amp;gt; secondBlock);&lt;/div&gt;&lt;div&gt;void accept(VisitorNode * visitor) override;&lt;/div&gt;&lt;div&gt;&amp;nbsp;~ASTIfStatement();&lt;/div&gt;" style="text;strokeColor=none;fillColor=none;align=left;verticalAlign=top;spacingLeft=4;spacingRight=4;overflow=hidden;rotatable=0;points=[[0,0.5],[1,0.5]];portConstraint=eastwest;whiteSpace=wrap;html=1;" vertex="1" parent="go2y35mZsy017kKOZNHy-30">
          <mxGeometry y="80" width="700" height="70" as="geometry" />
        </mxCell>
        <mxCell id="go2y35mZsy017kKOZNHy-34" value="ASTRtrnStatement" style="swimlane;fontStyle=1;align=center;verticalAlign=top;childLayout=stackLayout;horizontal=1;startSize=26;horizontalStack=0;resizeParent=1;resizeParentMax=0;resizeLast=0;collapsible=1;marginBottom=0;whiteSpace=wrap;html=1;" vertex="1" parent="1">
          <mxGeometry x="-20" y="450" width="360" height="140" as="geometry" />
        </mxCell>
        <mxCell id="go2y35mZsy017kKOZNHy-35" value="shared_ptr&amp;lt;ASTExpr&amp;gt; expression;" style="text;strokeColor=default;fillColor=none;align=left;verticalAlign=top;spacingLeft=4;spacingRight=4;overflow=hidden;rotatable=0;points=[[0,0.5],[1,0.5]];portConstraint=eastwest;whiteSpace=wrap;html=1;perimeterSpacing=0;" vertex="1" parent="go2y35mZsy017kKOZNHy-34">
          <mxGeometry y="26" width="360" height="44" as="geometry" />
        </mxCell>
        <mxCell id="go2y35mZsy017kKOZNHy-36" value="&lt;div&gt;ASTRtrnStatement()=default;&lt;/div&gt;&lt;div&gt;void accept(VisitorNode * visitor) override;&lt;/div&gt;&lt;div&gt;explicit ASTRtrnStatement( shared_ptr&amp;lt;ASTExpr&amp;gt; expression);&lt;/div&gt;&lt;div&gt;&amp;nbsp;~ASTRtrnStatement();&lt;/div&gt;" style="text;strokeColor=none;fillColor=none;align=left;verticalAlign=top;spacingLeft=4;spacingRight=4;overflow=hidden;rotatable=0;points=[[0,0.5],[1,0.5]];portConstraint=eastwest;whiteSpace=wrap;html=1;" vertex="1" parent="go2y35mZsy017kKOZNHy-34">
          <mxGeometry y="70" width="360" height="70" as="geometry" />
        </mxCell>
        <mxCell id="go2y35mZsy017kKOZNHy-38" value="ASTPixelStatement" style="swimlane;fontStyle=1;align=center;verticalAlign=top;childLayout=stackLayout;horizontal=1;startSize=26;horizontalStack=0;resizeParent=1;resizeParentMax=0;resizeLast=0;collapsible=1;marginBottom=0;whiteSpace=wrap;html=1;" vertex="1" parent="1">
          <mxGeometry x="-20" y="90" width="490" height="140" as="geometry" />
        </mxCell>
        <mxCell id="go2y35mZsy017kKOZNHy-39" value="&lt;div style=&quot;border-color: var(--border-color);&quot;&gt;string value;&lt;/div&gt;&lt;div style=&quot;border-color: var(--border-color);&quot;&gt;vector&amp;lt;shared_ptr&amp;lt;ASTExpr&amp;gt;&amp;gt; expressions;&lt;/div&gt;" style="text;strokeColor=default;fillColor=none;align=left;verticalAlign=top;spacingLeft=4;spacingRight=4;overflow=hidden;rotatable=0;points=[[0,0.5],[1,0.5]];portConstraint=eastwest;whiteSpace=wrap;html=1;perimeterSpacing=0;" vertex="1" parent="go2y35mZsy017kKOZNHy-38">
          <mxGeometry y="26" width="490" height="44" as="geometry" />
        </mxCell>
        <mxCell id="go2y35mZsy017kKOZNHy-40" value="&lt;div&gt;ASTPixelStatement()=default;&lt;/div&gt;&lt;div&gt;void accept(VisitorNode * visitor) override;&lt;/div&gt;&lt;div&gt;explicit ASTPixelStatement( string value, vector&amp;lt;shared_ptr&amp;lt;ASTExpr&amp;gt;&amp;gt; expressions);&lt;/div&gt;&lt;div&gt;~ASTPixelStatement();&lt;/div&gt;" style="text;strokeColor=none;fillColor=none;align=left;verticalAlign=top;spacingLeft=4;spacingRight=4;overflow=hidden;rotatable=0;points=[[0,0.5],[1,0.5]];portConstraint=eastwest;whiteSpace=wrap;html=1;" vertex="1" parent="go2y35mZsy017kKOZNHy-38">
          <mxGeometry y="70" width="490" height="70" as="geometry" />
        </mxCell>
        <mxCell id="go2y35mZsy017kKOZNHy-41" value="ASTDelayStatement" style="swimlane;fontStyle=1;align=center;verticalAlign=top;childLayout=stackLayout;horizontal=1;startSize=26;horizontalStack=0;resizeParent=1;resizeParentMax=0;resizeLast=0;collapsible=1;marginBottom=0;whiteSpace=wrap;html=1;" vertex="1" parent="1">
          <mxGeometry x="-20" y="-250" width="380" height="140" as="geometry" />
        </mxCell>
        <mxCell id="go2y35mZsy017kKOZNHy-42" value="&lt;div style=&quot;border-color: var(--border-color);&quot;&gt;&amp;nbsp;shared_ptr&amp;lt;ASTExpr&amp;gt; expression;&lt;br&gt;&lt;/div&gt;" style="text;strokeColor=default;fillColor=none;align=left;verticalAlign=top;spacingLeft=4;spacingRight=4;overflow=hidden;rotatable=0;points=[[0,0.5],[1,0.5]];portConstraint=eastwest;whiteSpace=wrap;html=1;perimeterSpacing=0;" vertex="1" parent="go2y35mZsy017kKOZNHy-41">
          <mxGeometry y="26" width="380" height="44" as="geometry" />
        </mxCell>
        <mxCell id="go2y35mZsy017kKOZNHy-43" value="&lt;div&gt;ASTDelayStatement()=default;&lt;/div&gt;&lt;div&gt;void accept(VisitorNode * visitor) override;&lt;/div&gt;&lt;div&gt;explicit ASTDelayStatement( shared_ptr&amp;lt;ASTExpr&amp;gt; expression);&lt;/div&gt;&lt;div&gt;~ASTDelayStatement();&lt;/div&gt;" style="text;strokeColor=none;fillColor=none;align=left;verticalAlign=top;spacingLeft=4;spacingRight=4;overflow=hidden;rotatable=0;points=[[0,0.5],[1,0.5]];portConstraint=eastwest;whiteSpace=wrap;html=1;" vertex="1" parent="go2y35mZsy017kKOZNHy-41">
          <mxGeometry y="70" width="380" height="70" as="geometry" />
        </mxCell>
        <mxCell id="go2y35mZsy017kKOZNHy-44" value="ASTClearStatement" style="swimlane;fontStyle=1;align=center;verticalAlign=top;childLayout=stackLayout;horizontal=1;startSize=26;horizontalStack=0;resizeParent=1;resizeParentMax=0;resizeLast=0;collapsible=1;marginBottom=0;whiteSpace=wrap;html=1;" vertex="1" parent="1">
          <mxGeometry x="-20" y="610" width="250" height="140" as="geometry" />
        </mxCell>
        <mxCell id="go2y35mZsy017kKOZNHy-45" value="&lt;div style=&quot;border-color: var(--border-color);&quot;&gt;string value;&lt;br&gt;&lt;/div&gt;" style="text;strokeColor=default;fillColor=none;align=left;verticalAlign=top;spacingLeft=4;spacingRight=4;overflow=hidden;rotatable=0;points=[[0,0.5],[1,0.5]];portConstraint=eastwest;whiteSpace=wrap;html=1;perimeterSpacing=0;" vertex="1" parent="go2y35mZsy017kKOZNHy-44">
          <mxGeometry y="26" width="250" height="44" as="geometry" />
        </mxCell>
        <mxCell id="go2y35mZsy017kKOZNHy-46" value="&lt;div&gt;ASTClearStatement()=default;&lt;/div&gt;&lt;div&gt;void accept(VisitorNode * visitor) override;&lt;/div&gt;&lt;div&gt;explicit ASTClearStatement( string value);&lt;/div&gt;&lt;div&gt;~ASTClearStatement()=default;&lt;/div&gt;" style="text;strokeColor=none;fillColor=none;align=left;verticalAlign=top;spacingLeft=4;spacingRight=4;overflow=hidden;rotatable=0;points=[[0,0.5],[1,0.5]];portConstraint=eastwest;whiteSpace=wrap;html=1;" vertex="1" parent="go2y35mZsy017kKOZNHy-44">
          <mxGeometry y="70" width="250" height="70" as="geometry" />
        </mxCell>
        <mxCell id="go2y35mZsy017kKOZNHy-47" value="ASTPrintStatement" style="swimlane;fontStyle=1;align=center;verticalAlign=top;childLayout=stackLayout;horizontal=1;startSize=26;horizontalStack=0;resizeParent=1;resizeParentMax=0;resizeLast=0;collapsible=1;marginBottom=0;whiteSpace=wrap;html=1;" vertex="1" parent="1">
          <mxGeometry x="-20" y="-80" width="380" height="140" as="geometry" />
        </mxCell>
        <mxCell id="go2y35mZsy017kKOZNHy-48" value="&lt;div style=&quot;border-color: var(--border-color);&quot;&gt;&amp;nbsp;shared_ptr&amp;lt;ASTExpr&amp;gt; expression;&lt;br&gt;&lt;/div&gt;" style="text;strokeColor=default;fillColor=none;align=left;verticalAlign=top;spacingLeft=4;spacingRight=4;overflow=hidden;rotatable=0;points=[[0,0.5],[1,0.5]];portConstraint=eastwest;whiteSpace=wrap;html=1;perimeterSpacing=0;" vertex="1" parent="go2y35mZsy017kKOZNHy-47">
          <mxGeometry y="26" width="380" height="44" as="geometry" />
        </mxCell>
        <mxCell id="go2y35mZsy017kKOZNHy-49" value="&lt;div&gt;ASTPrintStatement()=default;&lt;/div&gt;&lt;div&gt;void accept(VisitorNode * visitor) override;&lt;/div&gt;&lt;div&gt;explicit ASTPrintStatement( shared_ptr&amp;lt;ASTExpr&amp;gt; expression);&lt;/div&gt;&lt;div&gt;~ASTPrintStatement();&lt;/div&gt;" style="text;strokeColor=none;fillColor=none;align=left;verticalAlign=top;spacingLeft=4;spacingRight=4;overflow=hidden;rotatable=0;points=[[0,0.5],[1,0.5]];portConstraint=eastwest;whiteSpace=wrap;html=1;" vertex="1" parent="go2y35mZsy017kKOZNHy-47">
          <mxGeometry y="70" width="380" height="70" as="geometry" />
        </mxCell>
        <mxCell id="go2y35mZsy017kKOZNHy-50" value="ASTType" style="swimlane;fontStyle=1;align=center;verticalAlign=top;childLayout=stackLayout;horizontal=1;startSize=26;horizontalStack=0;resizeParent=1;resizeParentMax=0;resizeLast=0;collapsible=1;marginBottom=0;whiteSpace=wrap;html=1;" vertex="1" parent="1">
          <mxGeometry x="-920" y="-775" width="250" height="140" as="geometry" />
        </mxCell>
        <mxCell id="go2y35mZsy017kKOZNHy-51" value="&lt;div style=&quot;border-color: var(--border-color);&quot;&gt;string value;&lt;br&gt;&lt;/div&gt;" style="text;strokeColor=default;fillColor=none;align=left;verticalAlign=top;spacingLeft=4;spacingRight=4;overflow=hidden;rotatable=0;points=[[0,0.5],[1,0.5]];portConstraint=eastwest;whiteSpace=wrap;html=1;perimeterSpacing=0;" vertex="1" parent="go2y35mZsy017kKOZNHy-50">
          <mxGeometry y="26" width="250" height="44" as="geometry" />
        </mxCell>
        <mxCell id="go2y35mZsy017kKOZNHy-52" value="&lt;div&gt;ASTType()=default;&lt;/div&gt;&lt;div&gt;explicit ASTType( string value);&lt;/div&gt;&lt;div&gt;void accept(VisitorNode * visitor) override;&lt;/div&gt;&lt;div&gt;~ASTType()=default;&lt;/div&gt;" style="text;strokeColor=none;fillColor=none;align=left;verticalAlign=top;spacingLeft=4;spacingRight=4;overflow=hidden;rotatable=0;points=[[0,0.5],[1,0.5]];portConstraint=eastwest;whiteSpace=wrap;html=1;" vertex="1" parent="go2y35mZsy017kKOZNHy-50">
          <mxGeometry y="70" width="250" height="70" as="geometry" />
        </mxCell>
        <mxCell id="go2y35mZsy017kKOZNHy-53" value="ASTVariableDecl" style="swimlane;fontStyle=1;align=center;verticalAlign=top;childLayout=stackLayout;horizontal=1;startSize=26;horizontalStack=0;resizeParent=1;resizeParentMax=0;resizeLast=0;collapsible=1;marginBottom=0;whiteSpace=wrap;html=1;" vertex="1" parent="1">
          <mxGeometry x="-20" y="-970" width="670" height="160" as="geometry" />
        </mxCell>
        <mxCell id="go2y35mZsy017kKOZNHy-54" value="&lt;div style=&quot;border-color: var(--border-color);&quot;&gt;&lt;div style=&quot;border-color: var(--border-color);&quot;&gt;shared_ptr&amp;lt;ASTIdentifier&amp;gt; identifier;&lt;/div&gt;&lt;div style=&quot;border-color: var(--border-color);&quot;&gt;shared_ptr&amp;lt;ASTType&amp;gt; type;&lt;/div&gt;&lt;div style=&quot;border-color: var(--border-color);&quot;&gt;shared_ptr&amp;lt;ASTExpr&amp;gt; expression;&lt;/div&gt;&lt;/div&gt;" style="text;strokeColor=default;fillColor=none;align=left;verticalAlign=top;spacingLeft=4;spacingRight=4;overflow=hidden;rotatable=0;points=[[0,0.5],[1,0.5]];portConstraint=eastwest;whiteSpace=wrap;html=1;perimeterSpacing=0;" vertex="1" parent="go2y35mZsy017kKOZNHy-53">
          <mxGeometry y="26" width="670" height="54" as="geometry" />
        </mxCell>
        <mxCell id="go2y35mZsy017kKOZNHy-55" value="&lt;div&gt;ASTVariableDecl()=default;&lt;/div&gt;&lt;div&gt;void accept(VisitorNode * visitor) override;&lt;/div&gt;&lt;div&gt;&lt;span style=&quot;background-color: initial;&quot;&gt;ASTVariableDecl( shared_ptr&amp;lt;ASTIdentifier&amp;gt; identifier, shared_ptr&amp;lt;ASTType&amp;gt; type, shared_ptr&amp;lt;ASTExpr&amp;gt; expression);&lt;/span&gt;&lt;/div&gt;&lt;div&gt;~ASTVariableDecl();&lt;/div&gt;" style="text;strokeColor=none;fillColor=none;align=left;verticalAlign=top;spacingLeft=4;spacingRight=4;overflow=hidden;rotatable=0;points=[[0,0.5],[1,0.5]];portConstraint=eastwest;whiteSpace=wrap;html=1;" vertex="1" parent="go2y35mZsy017kKOZNHy-53">
          <mxGeometry y="80" width="670" height="80" as="geometry" />
        </mxCell>
        <mxCell id="go2y35mZsy017kKOZNHy-56" value="ASTAssignment" style="swimlane;fontStyle=1;align=center;verticalAlign=top;childLayout=stackLayout;horizontal=1;startSize=26;horizontalStack=0;resizeParent=1;resizeParentMax=0;resizeLast=0;collapsible=1;marginBottom=0;whiteSpace=wrap;html=1;" vertex="1" parent="1">
          <mxGeometry x="-20" y="-780" width="670" height="150" as="geometry" />
        </mxCell>
        <mxCell id="go2y35mZsy017kKOZNHy-57" value="&lt;div style=&quot;border-color: var(--border-color);&quot;&gt;&lt;div style=&quot;border-color: var(--border-color);&quot;&gt;shared_ptr&amp;lt;ASTIdentifier&amp;gt; identifier;&lt;/div&gt;&lt;div style=&quot;border-color: var(--border-color);&quot;&gt;shared_ptr&amp;lt;ASTExpr&amp;gt; expression;&lt;/div&gt;&lt;/div&gt;" style="text;strokeColor=default;fillColor=none;align=left;verticalAlign=top;spacingLeft=4;spacingRight=4;overflow=hidden;rotatable=0;points=[[0,0.5],[1,0.5]];portConstraint=eastwest;whiteSpace=wrap;html=1;perimeterSpacing=0;" vertex="1" parent="go2y35mZsy017kKOZNHy-56">
          <mxGeometry y="26" width="670" height="54" as="geometry" />
        </mxCell>
        <mxCell id="go2y35mZsy017kKOZNHy-58" value="&lt;div&gt;ASTAssignment( shared_ptr&amp;lt;ASTIdentifier&amp;gt; identifier,&amp;nbsp; shared_ptr&amp;lt;ASTExpr&amp;gt; expression);&lt;/div&gt;&lt;div&gt;void accept(VisitorNode * visitor) override;&lt;/div&gt;&lt;div&gt;ASTAssignment()=default;&lt;/div&gt;&lt;div&gt;~ASTAssignment();&lt;/div&gt;" style="text;strokeColor=none;fillColor=none;align=left;verticalAlign=top;spacingLeft=4;spacingRight=4;overflow=hidden;rotatable=0;points=[[0,0.5],[1,0.5]];portConstraint=eastwest;whiteSpace=wrap;html=1;" vertex="1" parent="go2y35mZsy017kKOZNHy-56">
          <mxGeometry y="80" width="670" height="70" as="geometry" />
        </mxCell>
        <mxCell id="go2y35mZsy017kKOZNHy-59" value="ASTFunctionDecl" style="swimlane;fontStyle=1;align=center;verticalAlign=top;childLayout=stackLayout;horizontal=1;startSize=26;horizontalStack=0;resizeParent=1;resizeParentMax=0;resizeLast=0;collapsible=1;marginBottom=0;whiteSpace=wrap;html=1;" vertex="1" parent="1">
          <mxGeometry x="-20" y="-1180" width="890" height="180" as="geometry" />
        </mxCell>
        <mxCell id="go2y35mZsy017kKOZNHy-60" value="&lt;div style=&quot;border-color: var(--border-color);&quot;&gt;&lt;div style=&quot;border-color: var(--border-color);&quot;&gt;&lt;div style=&quot;border-color: var(--border-color);&quot;&gt;&amp;nbsp;shared_ptr&amp;lt;ASTIdentifier&amp;gt; identifier;&lt;/div&gt;&lt;div style=&quot;border-color: var(--border-color);&quot;&gt;&amp;nbsp;shared_ptr&amp;lt;ASTBlock&amp;gt; block;&lt;/div&gt;&lt;div style=&quot;border-color: var(--border-color);&quot;&gt;&amp;nbsp;shared_ptr&amp;lt;ASTType&amp;gt; type;&lt;/div&gt;&lt;div style=&quot;border-color: var(--border-color);&quot;&gt;&amp;nbsp;shared_ptr&amp;lt;ASTFormalParams&amp;gt; formalParams;&lt;/div&gt;&lt;/div&gt;&lt;/div&gt;" style="text;strokeColor=default;fillColor=none;align=left;verticalAlign=top;spacingLeft=4;spacingRight=4;overflow=hidden;rotatable=0;points=[[0,0.5],[1,0.5]];portConstraint=eastwest;whiteSpace=wrap;html=1;perimeterSpacing=0;" vertex="1" parent="go2y35mZsy017kKOZNHy-59">
          <mxGeometry y="26" width="890" height="74" as="geometry" />
        </mxCell>
        <mxCell id="go2y35mZsy017kKOZNHy-61" value="&lt;div&gt;ASTFunctionDecl()=default;&lt;/div&gt;&lt;div&gt;ASTFunctionDecl( shared_ptr&amp;lt;ASTIdentifier&amp;gt; identifier, shared_ptr&amp;lt;ASTFormalParams&amp;gt; formalParams, shared_ptr&amp;lt;ASTType&amp;gt; type , shared_ptr&amp;lt;ASTBlock&amp;gt; block);&lt;/div&gt;&lt;div&gt;void accept(VisitorNode * visitor) override;&lt;/div&gt;&lt;div&gt;&amp;nbsp;~ASTFunctionDecl();&lt;/div&gt;" style="text;strokeColor=none;fillColor=none;align=left;verticalAlign=top;spacingLeft=4;spacingRight=4;overflow=hidden;rotatable=0;points=[[0,0.5],[1,0.5]];portConstraint=eastwest;whiteSpace=wrap;html=1;" vertex="1" parent="go2y35mZsy017kKOZNHy-59">
          <mxGeometry y="100" width="890" height="80" as="geometry" />
        </mxCell>
        <mxCell id="go2y35mZsy017kKOZNHy-62" value="ASTFormalParams" style="swimlane;fontStyle=1;align=center;verticalAlign=top;childLayout=stackLayout;horizontal=1;startSize=26;horizontalStack=0;resizeParent=1;resizeParentMax=0;resizeLast=0;collapsible=1;marginBottom=0;whiteSpace=wrap;html=1;" vertex="1" parent="1">
          <mxGeometry x="1650" y="580" width="480" height="130" as="geometry" />
        </mxCell>
        <mxCell id="go2y35mZsy017kKOZNHy-63" value="&lt;div style=&quot;border-color: var(--border-color);&quot;&gt;&lt;div style=&quot;border-color: var(--border-color);&quot;&gt;&lt;div style=&quot;border-color: var(--border-color);&quot;&gt;vector&amp;lt;shared_ptr&amp;lt;ASTFormalParam&amp;gt;&amp;gt; formalParams;&lt;br&gt;&lt;/div&gt;&lt;/div&gt;&lt;/div&gt;" style="text;strokeColor=default;fillColor=none;align=left;verticalAlign=top;spacingLeft=4;spacingRight=4;overflow=hidden;rotatable=0;points=[[0,0.5],[1,0.5]];portConstraint=eastwest;whiteSpace=wrap;html=1;perimeterSpacing=0;" vertex="1" parent="go2y35mZsy017kKOZNHy-62">
          <mxGeometry y="26" width="480" height="34" as="geometry" />
        </mxCell>
        <mxCell id="go2y35mZsy017kKOZNHy-64" value="&lt;div&gt;&amp;nbsp;ASTFormalParams()=default;&lt;/div&gt;&lt;div&gt;&amp;nbsp;explicit ASTFormalParams( vector&amp;lt;shared_ptr&amp;lt;ASTFormalParam&amp;gt;&amp;gt; formalParams);&lt;/div&gt;&lt;div&gt;&amp;nbsp;void accept(VisitorNode * visitor) override;&lt;/div&gt;&lt;div&gt;&lt;span style=&quot;background-color: initial;&quot;&gt;&amp;nbsp; ~ASTFormalParams();&lt;/span&gt;&lt;br&gt;&lt;/div&gt;" style="text;strokeColor=none;fillColor=none;align=left;verticalAlign=top;spacingLeft=4;spacingRight=4;overflow=hidden;rotatable=0;points=[[0,0.5],[1,0.5]];portConstraint=eastwest;whiteSpace=wrap;html=1;" vertex="1" parent="go2y35mZsy017kKOZNHy-62">
          <mxGeometry y="60" width="480" height="70" as="geometry" />
        </mxCell>
        <mxCell id="go2y35mZsy017kKOZNHy-65" value="ASTActualParams" style="swimlane;fontStyle=1;align=center;verticalAlign=top;childLayout=stackLayout;horizontal=1;startSize=26;horizontalStack=0;resizeParent=1;resizeParentMax=0;resizeLast=0;collapsible=1;marginBottom=0;whiteSpace=wrap;html=1;" vertex="1" parent="1">
          <mxGeometry x="2190" y="590" width="480" height="130" as="geometry" />
        </mxCell>
        <mxCell id="go2y35mZsy017kKOZNHy-66" value="&lt;div style=&quot;border-color: var(--border-color);&quot;&gt;&lt;div style=&quot;border-color: var(--border-color);&quot;&gt;&lt;div style=&quot;border-color: var(--border-color);&quot;&gt;vector&amp;lt;shared_ptr&amp;lt;ASTExpr&amp;gt;&amp;gt; expressions;&lt;br&gt;&lt;/div&gt;&lt;/div&gt;&lt;/div&gt;" style="text;strokeColor=default;fillColor=none;align=left;verticalAlign=top;spacingLeft=4;spacingRight=4;overflow=hidden;rotatable=0;points=[[0,0.5],[1,0.5]];portConstraint=eastwest;whiteSpace=wrap;html=1;perimeterSpacing=0;" vertex="1" parent="go2y35mZsy017kKOZNHy-65">
          <mxGeometry y="26" width="480" height="34" as="geometry" />
        </mxCell>
        <mxCell id="go2y35mZsy017kKOZNHy-67" value="&lt;div&gt;ASTActualParams()=default;&lt;/div&gt;&lt;div&gt;explicit ASTActualParams( vector&amp;lt;shared_ptr&amp;lt;ASTExpr&amp;gt;&amp;gt; expressions);&lt;/div&gt;&lt;div&gt;void accept(VisitorNode * visitor) override;&lt;/div&gt;&lt;div&gt;~ASTActualParams();&lt;/div&gt;" style="text;strokeColor=none;fillColor=none;align=left;verticalAlign=top;spacingLeft=4;spacingRight=4;overflow=hidden;rotatable=0;points=[[0,0.5],[1,0.5]];portConstraint=eastwest;whiteSpace=wrap;html=1;" vertex="1" parent="go2y35mZsy017kKOZNHy-65">
          <mxGeometry y="60" width="480" height="70" as="geometry" />
        </mxCell>
        <mxCell id="go2y35mZsy017kKOZNHy-68" value="ASTFormalParam" style="swimlane;fontStyle=1;align=center;verticalAlign=top;childLayout=stackLayout;horizontal=1;startSize=26;horizontalStack=0;resizeParent=1;resizeParentMax=0;resizeLast=0;collapsible=1;marginBottom=0;whiteSpace=wrap;html=1;" vertex="1" parent="1">
          <mxGeometry x="1780" y="320" width="480" height="140" as="geometry" />
        </mxCell>
        <mxCell id="go2y35mZsy017kKOZNHy-69" value="&lt;div style=&quot;border-color: var(--border-color);&quot;&gt;&lt;div style=&quot;border-color: var(--border-color);&quot;&gt;&lt;div style=&quot;border-color: var(--border-color);&quot;&gt;&lt;div style=&quot;border-color: var(--border-color);&quot;&gt;shared_ptr&amp;lt;ASTIdentifier&amp;gt; identifier;&lt;/div&gt;&lt;div style=&quot;border-color: var(--border-color);&quot;&gt;shared_ptr&amp;lt;ASTType&amp;gt; type;&lt;/div&gt;&lt;/div&gt;&lt;/div&gt;&lt;/div&gt;" style="text;strokeColor=default;fillColor=none;align=left;verticalAlign=top;spacingLeft=4;spacingRight=4;overflow=hidden;rotatable=0;points=[[0,0.5],[1,0.5]];portConstraint=eastwest;whiteSpace=wrap;html=1;perimeterSpacing=0;" vertex="1" parent="go2y35mZsy017kKOZNHy-68">
          <mxGeometry y="26" width="480" height="44" as="geometry" />
        </mxCell>
        <mxCell id="go2y35mZsy017kKOZNHy-70" value="&lt;div&gt;ASTFormalParam()=default;&lt;/div&gt;&lt;div&gt;ASTFormalParam( shared_ptr&amp;lt;ASTIdentifier&amp;gt; identifier, shared_ptr&amp;lt;ASTType&amp;gt; type);&lt;/div&gt;&lt;div&gt;void accept(VisitorNode * visitor) override;&lt;/div&gt;&lt;div&gt;~ASTFormalParam();&lt;/div&gt;" style="text;strokeColor=none;fillColor=none;align=left;verticalAlign=top;spacingLeft=4;spacingRight=4;overflow=hidden;rotatable=0;points=[[0,0.5],[1,0.5]];portConstraint=eastwest;whiteSpace=wrap;html=1;" vertex="1" parent="go2y35mZsy017kKOZNHy-68">
          <mxGeometry y="70" width="480" height="70" as="geometry" />
        </mxCell>
        <mxCell id="go2y35mZsy017kKOZNHy-71" value="ASTExpr" style="swimlane;fontStyle=1;align=center;verticalAlign=top;childLayout=stackLayout;horizontal=1;startSize=26;horizontalStack=0;resizeParent=1;resizeParentMax=0;resizeLast=0;collapsible=1;marginBottom=0;whiteSpace=wrap;html=1;" vertex="1" parent="1">
          <mxGeometry x="1200" y="380" width="480" height="130" as="geometry" />
        </mxCell>
        <mxCell id="go2y35mZsy017kKOZNHy-72" value="&lt;div style=&quot;border-color: var(--border-color);&quot;&gt;&lt;div style=&quot;border-color: var(--border-color);&quot;&gt;&lt;div style=&quot;border-color: var(--border-color);&quot;&gt;vector&amp;lt;shared_ptr&amp;lt;ASTSimpleExpr&amp;gt;&amp;gt; simpleExpressions{};&lt;br&gt;&lt;/div&gt;&lt;/div&gt;&lt;/div&gt;" style="text;strokeColor=default;fillColor=none;align=left;verticalAlign=top;spacingLeft=4;spacingRight=4;overflow=hidden;rotatable=0;points=[[0,0.5],[1,0.5]];portConstraint=eastwest;whiteSpace=wrap;html=1;perimeterSpacing=0;" vertex="1" parent="go2y35mZsy017kKOZNHy-71">
          <mxGeometry y="26" width="480" height="34" as="geometry" />
        </mxCell>
        <mxCell id="go2y35mZsy017kKOZNHy-73" value="&lt;div&gt;ASTExpr()=default;&lt;/div&gt;&lt;div&gt;explicit ASTExpr( vector&amp;lt;shared_ptr&amp;lt;ASTSimpleExpr&amp;gt;&amp;gt; simpleExpressions);&lt;/div&gt;&lt;div&gt;void accept(VisitorNode * visitor) override;&lt;/div&gt;&lt;div&gt;&lt;span style=&quot;background-color: initial;&quot;&gt;~ASTExpr();&lt;/span&gt;&lt;/div&gt;" style="text;strokeColor=none;fillColor=none;align=left;verticalAlign=top;spacingLeft=4;spacingRight=4;overflow=hidden;rotatable=0;points=[[0,0.5],[1,0.5]];portConstraint=eastwest;whiteSpace=wrap;html=1;" vertex="1" parent="go2y35mZsy017kKOZNHy-71">
          <mxGeometry y="60" width="480" height="70" as="geometry" />
        </mxCell>
        <mxCell id="go2y35mZsy017kKOZNHy-74" value="ASTSimpleExpr" style="swimlane;fontStyle=1;align=center;verticalAlign=top;childLayout=stackLayout;horizontal=1;startSize=26;horizontalStack=0;resizeParent=1;resizeParentMax=0;resizeLast=0;collapsible=1;marginBottom=0;whiteSpace=wrap;html=1;" vertex="1" parent="1">
          <mxGeometry x="1260" y="190" width="360" height="130" as="geometry" />
        </mxCell>
        <mxCell id="go2y35mZsy017kKOZNHy-75" value="&lt;div style=&quot;border-color: var(--border-color);&quot;&gt;&lt;div style=&quot;border-color: var(--border-color);&quot;&gt;&lt;div style=&quot;border-color: var(--border-color);&quot;&gt;vector&amp;lt;shared_ptr&amp;lt;ASTTerm&amp;gt;&amp;gt; terms{};&lt;br&gt;&lt;/div&gt;&lt;/div&gt;&lt;/div&gt;" style="text;strokeColor=default;fillColor=none;align=left;verticalAlign=top;spacingLeft=4;spacingRight=4;overflow=hidden;rotatable=0;points=[[0,0.5],[1,0.5]];portConstraint=eastwest;whiteSpace=wrap;html=1;perimeterSpacing=0;" vertex="1" parent="go2y35mZsy017kKOZNHy-74">
          <mxGeometry y="26" width="360" height="34" as="geometry" />
        </mxCell>
        <mxCell id="go2y35mZsy017kKOZNHy-76" value="&lt;div&gt;ASTSimpleExpr()=default;&lt;/div&gt;&lt;div&gt;explicit ASTSimpleExpr( vector&amp;lt;shared_ptr&amp;lt;ASTTerm&amp;gt;&amp;gt; terms);&lt;/div&gt;&lt;div&gt;void accept(VisitorNode * visitor) override;&lt;/div&gt;&lt;div&gt;~ASTSimpleExpr();&lt;/div&gt;" style="text;strokeColor=none;fillColor=none;align=left;verticalAlign=top;spacingLeft=4;spacingRight=4;overflow=hidden;rotatable=0;points=[[0,0.5],[1,0.5]];portConstraint=eastwest;whiteSpace=wrap;html=1;" vertex="1" parent="go2y35mZsy017kKOZNHy-74">
          <mxGeometry y="60" width="360" height="70" as="geometry" />
        </mxCell>
        <mxCell id="go2y35mZsy017kKOZNHy-77" value="ASTTerm" style="swimlane;fontStyle=1;align=center;verticalAlign=top;childLayout=stackLayout;horizontal=1;startSize=26;horizontalStack=0;resizeParent=1;resizeParentMax=0;resizeLast=0;collapsible=1;marginBottom=0;whiteSpace=wrap;html=1;" vertex="1" parent="1">
          <mxGeometry x="1690" y="140" width="360" height="130" as="geometry" />
        </mxCell>
        <mxCell id="go2y35mZsy017kKOZNHy-78" value="&lt;div style=&quot;border-color: var(--border-color);&quot;&gt;&lt;div style=&quot;border-color: var(--border-color);&quot;&gt;&lt;div style=&quot;border-color: var(--border-color);&quot;&gt;vector&amp;lt;shared_ptr&amp;lt;ASTFactor&amp;gt;&amp;gt; factors{};&lt;br&gt;&lt;/div&gt;&lt;/div&gt;&lt;/div&gt;" style="text;strokeColor=default;fillColor=none;align=left;verticalAlign=top;spacingLeft=4;spacingRight=4;overflow=hidden;rotatable=0;points=[[0,0.5],[1,0.5]];portConstraint=eastwest;whiteSpace=wrap;html=1;perimeterSpacing=0;" vertex="1" parent="go2y35mZsy017kKOZNHy-77">
          <mxGeometry y="26" width="360" height="34" as="geometry" />
        </mxCell>
        <mxCell id="go2y35mZsy017kKOZNHy-79" value="&lt;div&gt;ASTTerm()=default;&lt;/div&gt;&lt;div&gt;explicit ASTTerm( vector&amp;lt;shared_ptr&amp;lt;ASTFactor&amp;gt;&amp;gt; factors);&lt;/div&gt;&lt;div&gt;void accept(VisitorNode * visitor) override;&lt;/div&gt;&lt;div&gt;~ASTTerm();&lt;/div&gt;" style="text;strokeColor=none;fillColor=none;align=left;verticalAlign=top;spacingLeft=4;spacingRight=4;overflow=hidden;rotatable=0;points=[[0,0.5],[1,0.5]];portConstraint=eastwest;whiteSpace=wrap;html=1;" vertex="1" parent="go2y35mZsy017kKOZNHy-77">
          <mxGeometry y="60" width="360" height="70" as="geometry" />
        </mxCell>
        <mxCell id="go2y35mZsy017kKOZNHy-80" value="ASTFactor" style="swimlane;fontStyle=1;align=center;verticalAlign=top;childLayout=stackLayout;horizontal=1;startSize=26;horizontalStack=0;resizeParent=1;resizeParentMax=0;resizeLast=0;collapsible=1;marginBottom=0;whiteSpace=wrap;html=1;" vertex="1" parent="1">
          <mxGeometry x="1240" y="560" width="250" height="90" as="geometry" />
        </mxCell>
        <mxCell id="go2y35mZsy017kKOZNHy-81" value="&lt;div style=&quot;border-color: var(--border-color);&quot;&gt;&lt;div style=&quot;border-color: var(--border-color);&quot;&gt;&lt;div style=&quot;border-color: var(--border-color);&quot;&gt;&lt;br&gt;&lt;/div&gt;&lt;/div&gt;&lt;/div&gt;" style="text;strokeColor=default;fillColor=none;align=left;verticalAlign=top;spacingLeft=4;spacingRight=4;overflow=hidden;rotatable=0;points=[[0,0.5],[1,0.5]];portConstraint=eastwest;whiteSpace=wrap;html=1;perimeterSpacing=0;" vertex="1" parent="go2y35mZsy017kKOZNHy-80">
          <mxGeometry y="26" width="250" height="4" as="geometry" />
        </mxCell>
        <mxCell id="go2y35mZsy017kKOZNHy-82" value="&lt;div&gt;ASTFactor()=default;&lt;/div&gt;&lt;div&gt;void accept(VisitorNode * visitor) override;&lt;/div&gt;&lt;div&gt;~ASTFactor()=default;&lt;/div&gt;" style="text;strokeColor=none;fillColor=none;align=left;verticalAlign=top;spacingLeft=4;spacingRight=4;overflow=hidden;rotatable=0;points=[[0,0.5],[1,0.5]];portConstraint=eastwest;whiteSpace=wrap;html=1;" vertex="1" parent="go2y35mZsy017kKOZNHy-80">
          <mxGeometry y="30" width="250" height="60" as="geometry" />
        </mxCell>
        <mxCell id="go2y35mZsy017kKOZNHy-83" value="ASTUnary" style="swimlane;fontStyle=1;align=center;verticalAlign=top;childLayout=stackLayout;horizontal=1;startSize=26;horizontalStack=0;resizeParent=1;resizeParentMax=0;resizeLast=0;collapsible=1;marginBottom=0;whiteSpace=wrap;html=1;" vertex="1" parent="1">
          <mxGeometry x="2070" y="140" width="410" height="140" as="geometry" />
        </mxCell>
        <mxCell id="go2y35mZsy017kKOZNHy-84" value="&lt;div style=&quot;border-color: var(--border-color);&quot;&gt;&lt;div style=&quot;border-color: var(--border-color);&quot;&gt;&lt;div style=&quot;border-color: var(--border-color);&quot;&gt;&lt;div style=&quot;border-color: var(--border-color);&quot;&gt;string UnaryOperator;&lt;/div&gt;&lt;div style=&quot;border-color: var(--border-color);&quot;&gt;shared_ptr&amp;lt;ASTExpr&amp;gt; expression;&lt;/div&gt;&lt;/div&gt;&lt;/div&gt;&lt;/div&gt;" style="text;strokeColor=default;fillColor=none;align=left;verticalAlign=top;spacingLeft=4;spacingRight=4;overflow=hidden;rotatable=0;points=[[0,0.5],[1,0.5]];portConstraint=eastwest;whiteSpace=wrap;html=1;perimeterSpacing=0;" vertex="1" parent="go2y35mZsy017kKOZNHy-83">
          <mxGeometry y="26" width="410" height="44" as="geometry" />
        </mxCell>
        <mxCell id="go2y35mZsy017kKOZNHy-85" value="&lt;div&gt;ASTUnary( shared_ptr&amp;lt;ASTExpr&amp;gt; expression,&amp;nbsp; string UnaryOperator);&lt;/div&gt;&lt;div&gt;ASTUnary()=default;&lt;/div&gt;&lt;div&gt;void accept(VisitorNode * visitor) override;&lt;/div&gt;&lt;div&gt;&lt;span style=&quot;background-color: initial;&quot;&gt;~ASTUnary();&lt;/span&gt;&lt;/div&gt;" style="text;strokeColor=none;fillColor=none;align=left;verticalAlign=top;spacingLeft=4;spacingRight=4;overflow=hidden;rotatable=0;points=[[0,0.5],[1,0.5]];portConstraint=eastwest;whiteSpace=wrap;html=1;" vertex="1" parent="go2y35mZsy017kKOZNHy-83">
          <mxGeometry y="70" width="410" height="70" as="geometry" />
        </mxCell>
        <mxCell id="go2y35mZsy017kKOZNHy-86" value="ASTSubExpr" style="swimlane;fontStyle=1;align=center;verticalAlign=top;childLayout=stackLayout;horizontal=1;startSize=26;horizontalStack=0;resizeParent=1;resizeParentMax=0;resizeLast=0;collapsible=1;marginBottom=0;whiteSpace=wrap;html=1;" vertex="1" parent="1">
          <mxGeometry x="1950" y="-20" width="330" height="130" as="geometry" />
        </mxCell>
        <mxCell id="go2y35mZsy017kKOZNHy-87" value="&lt;div style=&quot;border-color: var(--border-color);&quot;&gt;&lt;div style=&quot;border-color: var(--border-color);&quot;&gt;&lt;div style=&quot;border-color: var(--border-color);&quot;&gt;&lt;div style=&quot;border-color: var(--border-color);&quot;&gt;&lt;span style=&quot;background-color: initial;&quot;&gt;shared_ptr&amp;lt;ASTExpr&amp;gt; expression;&lt;/span&gt;&lt;br&gt;&lt;/div&gt;&lt;/div&gt;&lt;/div&gt;&lt;/div&gt;" style="text;strokeColor=default;fillColor=none;align=left;verticalAlign=top;spacingLeft=4;spacingRight=4;overflow=hidden;rotatable=0;points=[[0,0.5],[1,0.5]];portConstraint=eastwest;whiteSpace=wrap;html=1;perimeterSpacing=0;" vertex="1" parent="go2y35mZsy017kKOZNHy-86">
          <mxGeometry y="26" width="330" height="34" as="geometry" />
        </mxCell>
        <mxCell id="go2y35mZsy017kKOZNHy-88" value="&lt;div&gt;explicit ASTSubExpr( shared_ptr&amp;lt;ASTExpr&amp;gt; expression);&lt;/div&gt;&lt;div&gt;void accept(VisitorNode * visitor) override;&lt;/div&gt;&lt;div&gt;ASTSubExpr()=default;&lt;/div&gt;&lt;div&gt;~ASTSubExpr();&lt;/div&gt;" style="text;strokeColor=none;fillColor=none;align=left;verticalAlign=top;spacingLeft=4;spacingRight=4;overflow=hidden;rotatable=0;points=[[0,0.5],[1,0.5]];portConstraint=eastwest;whiteSpace=wrap;html=1;" vertex="1" parent="go2y35mZsy017kKOZNHy-86">
          <mxGeometry y="60" width="330" height="70" as="geometry" />
        </mxCell>
        <mxCell id="go2y35mZsy017kKOZNHy-89" value="ASTFunctionCall" style="swimlane;fontStyle=1;align=center;verticalAlign=top;childLayout=stackLayout;horizontal=1;startSize=26;horizontalStack=0;resizeParent=1;resizeParentMax=0;resizeLast=0;collapsible=1;marginBottom=0;whiteSpace=wrap;html=1;" vertex="1" parent="1">
          <mxGeometry x="1215" y="-30" width="570" height="150" as="geometry" />
        </mxCell>
        <mxCell id="go2y35mZsy017kKOZNHy-90" value="&lt;div style=&quot;border-color: var(--border-color);&quot;&gt;&lt;div style=&quot;border-color: var(--border-color);&quot;&gt;&lt;div style=&quot;border-color: var(--border-color);&quot;&gt;&lt;div style=&quot;border-color: var(--border-color);&quot;&gt;shared_ptr&amp;lt;ASTIdentifier&amp;gt; identifier;&lt;/div&gt;&lt;div style=&quot;border-color: var(--border-color);&quot;&gt;shared_ptr&amp;lt;ASTActualParams&amp;gt; actualParams;&lt;/div&gt;&lt;div style=&quot;border-color: var(--border-color);&quot;&gt;string value;&lt;br&gt;&lt;/div&gt;&lt;/div&gt;&lt;/div&gt;&lt;/div&gt;" style="text;strokeColor=default;fillColor=none;align=left;verticalAlign=top;spacingLeft=4;spacingRight=4;overflow=hidden;rotatable=0;points=[[0,0.5],[1,0.5]];portConstraint=eastwest;whiteSpace=wrap;html=1;perimeterSpacing=0;" vertex="1" parent="go2y35mZsy017kKOZNHy-89">
          <mxGeometry y="26" width="570" height="54" as="geometry" />
        </mxCell>
        <mxCell id="go2y35mZsy017kKOZNHy-91" value="&lt;div&gt;&lt;span style=&quot;background-color: initial;&quot;&gt;ASTFunctionCall( shared_ptr&amp;lt;ASTIdentifier&amp;gt; identifier, shared_ptr&amp;lt;ASTActualParams&amp;gt; actualParams);&lt;/span&gt;&lt;br&gt;&lt;/div&gt;&lt;div&gt;void accept(VisitorNode * visitor) override;&lt;/div&gt;&lt;div&gt;ASTFunctionCall()=default;&lt;/div&gt;&lt;div&gt;~ASTFunctionCall();&lt;/div&gt;" style="text;strokeColor=none;fillColor=none;align=left;verticalAlign=top;spacingLeft=4;spacingRight=4;overflow=hidden;rotatable=0;points=[[0,0.5],[1,0.5]];portConstraint=eastwest;whiteSpace=wrap;html=1;" vertex="1" parent="go2y35mZsy017kKOZNHy-89">
          <mxGeometry y="80" width="570" height="70" as="geometry" />
        </mxCell>
        <mxCell id="go2y35mZsy017kKOZNHy-92" value="ASTLiteral" style="swimlane;fontStyle=1;align=center;verticalAlign=top;childLayout=stackLayout;horizontal=1;startSize=26;horizontalStack=0;resizeParent=1;resizeParentMax=0;resizeLast=0;collapsible=1;marginBottom=0;whiteSpace=wrap;html=1;" vertex="1" parent="1">
          <mxGeometry x="1300" y="665" width="250" height="90" as="geometry" />
        </mxCell>
        <mxCell id="go2y35mZsy017kKOZNHy-93" value="&lt;div style=&quot;border-color: var(--border-color);&quot;&gt;&lt;div style=&quot;border-color: var(--border-color);&quot;&gt;&lt;div style=&quot;border-color: var(--border-color);&quot;&gt;&lt;br&gt;&lt;/div&gt;&lt;/div&gt;&lt;/div&gt;" style="text;strokeColor=default;fillColor=none;align=left;verticalAlign=top;spacingLeft=4;spacingRight=4;overflow=hidden;rotatable=0;points=[[0,0.5],[1,0.5]];portConstraint=eastwest;whiteSpace=wrap;html=1;perimeterSpacing=0;" vertex="1" parent="go2y35mZsy017kKOZNHy-92">
          <mxGeometry y="26" width="250" height="4" as="geometry" />
        </mxCell>
        <mxCell id="go2y35mZsy017kKOZNHy-94" value="&lt;div&gt;ASTLiteral()=default;&lt;/div&gt;&lt;div&gt;void accept(VisitorNode * visitor) override;&lt;/div&gt;&lt;div&gt;~ASTLiteral()=default;&lt;/div&gt;" style="text;strokeColor=none;fillColor=none;align=left;verticalAlign=top;spacingLeft=4;spacingRight=4;overflow=hidden;rotatable=0;points=[[0,0.5],[1,0.5]];portConstraint=eastwest;whiteSpace=wrap;html=1;" vertex="1" parent="go2y35mZsy017kKOZNHy-92">
          <mxGeometry y="30" width="250" height="60" as="geometry" />
        </mxCell>
        <mxCell id="go2y35mZsy017kKOZNHy-95" value="ASTIntLiteral" style="swimlane;fontStyle=1;align=center;verticalAlign=top;childLayout=stackLayout;horizontal=1;startSize=26;horizontalStack=0;resizeParent=1;resizeParentMax=0;resizeLast=0;collapsible=1;marginBottom=0;whiteSpace=wrap;html=1;" vertex="1" parent="1">
          <mxGeometry x="2420" y="-40" width="250" height="130" as="geometry" />
        </mxCell>
        <mxCell id="go2y35mZsy017kKOZNHy-96" value="&lt;div style=&quot;border-color: var(--border-color);&quot;&gt;&lt;div style=&quot;border-color: var(--border-color);&quot;&gt;&lt;div style=&quot;border-color: var(--border-color);&quot;&gt;&lt;div style=&quot;border-color: var(--border-color);&quot;&gt;&lt;div style=&quot;border-color: var(--border-color);&quot;&gt;int value{};&lt;/div&gt;&lt;/div&gt;&lt;/div&gt;&lt;/div&gt;&lt;/div&gt;" style="text;strokeColor=default;fillColor=none;align=left;verticalAlign=top;spacingLeft=4;spacingRight=4;overflow=hidden;rotatable=0;points=[[0,0.5],[1,0.5]];portConstraint=eastwest;whiteSpace=wrap;html=1;perimeterSpacing=0;" vertex="1" parent="go2y35mZsy017kKOZNHy-95">
          <mxGeometry y="26" width="250" height="34" as="geometry" />
        </mxCell>
        <mxCell id="go2y35mZsy017kKOZNHy-97" value="&lt;div&gt;&lt;span style=&quot;background-color: initial;&quot;&gt;explicit ASTIntLiteral( const string&amp;amp; val);&lt;/span&gt;&lt;br&gt;&lt;/div&gt;&lt;div&gt;void accept(VisitorNode * visitor) override;&lt;/div&gt;&lt;div&gt;ASTIntLiteral()=default;&lt;/div&gt;&lt;div&gt;~ASTIntLiteral()=default;&lt;/div&gt;" style="text;strokeColor=none;fillColor=none;align=left;verticalAlign=top;spacingLeft=4;spacingRight=4;overflow=hidden;rotatable=0;points=[[0,0.5],[1,0.5]];portConstraint=eastwest;whiteSpace=wrap;html=1;" vertex="1" parent="go2y35mZsy017kKOZNHy-95">
          <mxGeometry y="60" width="250" height="70" as="geometry" />
        </mxCell>
        <mxCell id="go2y35mZsy017kKOZNHy-98" value="&lt;blockquote style=&quot;margin: 0 0 0 40px; border: none; padding: 0px;&quot;&gt;ASTColourLiteral&lt;/blockquote&gt;" style="swimlane;fontStyle=1;align=center;verticalAlign=top;childLayout=stackLayout;horizontal=1;startSize=26;horizontalStack=0;resizeParent=1;resizeParentMax=0;resizeLast=0;collapsible=1;marginBottom=0;whiteSpace=wrap;html=1;" vertex="1" parent="1">
          <mxGeometry x="1580" y="-1395" width="250" height="130" as="geometry" />
        </mxCell>
        <mxCell id="go2y35mZsy017kKOZNHy-99" value="&lt;div style=&quot;border-color: var(--border-color);&quot;&gt;&lt;div style=&quot;border-color: var(--border-color);&quot;&gt;&lt;div style=&quot;border-color: var(--border-color);&quot;&gt;&lt;div style=&quot;border-color: var(--border-color);&quot;&gt;string value;&lt;br&gt;&lt;/div&gt;&lt;/div&gt;&lt;/div&gt;&lt;/div&gt;" style="text;strokeColor=default;fillColor=none;align=left;verticalAlign=top;spacingLeft=4;spacingRight=4;overflow=hidden;rotatable=0;points=[[0,0.5],[1,0.5]];portConstraint=eastwest;whiteSpace=wrap;html=1;perimeterSpacing=0;" vertex="1" parent="go2y35mZsy017kKOZNHy-98">
          <mxGeometry y="26" width="250" height="34" as="geometry" />
        </mxCell>
        <mxCell id="go2y35mZsy017kKOZNHy-100" value="&lt;div&gt;&lt;span style=&quot;background-color: initial;&quot;&gt;explicit ASTColourLiteral( string value);&lt;/span&gt;&lt;br&gt;&lt;/div&gt;&lt;div&gt;void accept(VisitorNode * visitor) override;&lt;/div&gt;&lt;div&gt;ASTColourLiteral()=default;&lt;/div&gt;&lt;div&gt;~ASTColourLiteral()=default;&lt;/div&gt;" style="text;strokeColor=none;fillColor=none;align=left;verticalAlign=top;spacingLeft=4;spacingRight=4;overflow=hidden;rotatable=0;points=[[0,0.5],[1,0.5]];portConstraint=eastwest;whiteSpace=wrap;html=1;" vertex="1" parent="go2y35mZsy017kKOZNHy-98">
          <mxGeometry y="60" width="250" height="70" as="geometry" />
        </mxCell>
        <mxCell id="go2y35mZsy017kKOZNHy-101" value="ASTFloatLiteral" style="swimlane;fontStyle=1;align=center;verticalAlign=top;childLayout=stackLayout;horizontal=1;startSize=26;horizontalStack=0;resizeParent=1;resizeParentMax=0;resizeLast=0;collapsible=1;marginBottom=0;whiteSpace=wrap;html=1;" vertex="1" parent="1">
          <mxGeometry x="2480" y="340" width="250" height="130" as="geometry" />
        </mxCell>
        <mxCell id="go2y35mZsy017kKOZNHy-102" value="&lt;div style=&quot;border-color: var(--border-color);&quot;&gt;&lt;div style=&quot;border-color: var(--border-color);&quot;&gt;&lt;div style=&quot;border-color: var(--border-color);&quot;&gt;&lt;div style=&quot;border-color: var(--border-color);&quot;&gt;&lt;div style=&quot;border-color: var(--border-color);&quot;&gt;float value{};&lt;br&gt;&lt;/div&gt;&lt;/div&gt;&lt;/div&gt;&lt;/div&gt;&lt;/div&gt;" style="text;strokeColor=default;fillColor=none;align=left;verticalAlign=top;spacingLeft=4;spacingRight=4;overflow=hidden;rotatable=0;points=[[0,0.5],[1,0.5]];portConstraint=eastwest;whiteSpace=wrap;html=1;perimeterSpacing=0;" vertex="1" parent="go2y35mZsy017kKOZNHy-101">
          <mxGeometry y="26" width="250" height="34" as="geometry" />
        </mxCell>
        <mxCell id="go2y35mZsy017kKOZNHy-103" value="&lt;div&gt;&lt;span style=&quot;background-color: initial;&quot;&gt;explicit ASTFloatLiteral( const string&amp;amp; val);&lt;/span&gt;&lt;br&gt;&lt;/div&gt;&lt;div&gt;void accept(VisitorNode * visitor) override;&lt;/div&gt;&lt;div&gt;ASTFloatLiteral()=default;&lt;/div&gt;&lt;div&gt;~ASTFloatLiteral()=default;&lt;/div&gt;" style="text;strokeColor=none;fillColor=none;align=left;verticalAlign=top;spacingLeft=4;spacingRight=4;overflow=hidden;rotatable=0;points=[[0,0.5],[1,0.5]];portConstraint=eastwest;whiteSpace=wrap;html=1;" vertex="1" parent="go2y35mZsy017kKOZNHy-101">
          <mxGeometry y="60" width="250" height="70" as="geometry" />
        </mxCell>
        <mxCell id="go2y35mZsy017kKOZNHy-104" value="ASTBoolLiteral" style="swimlane;fontStyle=1;align=center;verticalAlign=top;childLayout=stackLayout;horizontal=1;startSize=26;horizontalStack=0;resizeParent=1;resizeParentMax=0;resizeLast=0;collapsible=1;marginBottom=0;whiteSpace=wrap;html=1;" vertex="1" parent="1">
          <mxGeometry x="1760" y="-1200" width="250" height="130" as="geometry" />
        </mxCell>
        <mxCell id="go2y35mZsy017kKOZNHy-105" value="&lt;div style=&quot;border-color: var(--border-color);&quot;&gt;&lt;div style=&quot;border-color: var(--border-color);&quot;&gt;&lt;div style=&quot;border-color: var(--border-color);&quot;&gt;&lt;div style=&quot;border-color: var(--border-color);&quot;&gt;&lt;div style=&quot;border-color: var(--border-color);&quot;&gt;bool value{};&lt;br&gt;&lt;/div&gt;&lt;/div&gt;&lt;/div&gt;&lt;/div&gt;&lt;/div&gt;" style="text;strokeColor=default;fillColor=none;align=left;verticalAlign=top;spacingLeft=4;spacingRight=4;overflow=hidden;rotatable=0;points=[[0,0.5],[1,0.5]];portConstraint=eastwest;whiteSpace=wrap;html=1;perimeterSpacing=0;" vertex="1" parent="go2y35mZsy017kKOZNHy-104">
          <mxGeometry y="26" width="250" height="34" as="geometry" />
        </mxCell>
        <mxCell id="go2y35mZsy017kKOZNHy-106" value="&lt;div&gt;&lt;span style=&quot;background-color: initial;&quot;&gt;explicit ASTBoolLiteral( const string&amp;amp; val);&lt;/span&gt;&lt;br&gt;&lt;/div&gt;&lt;div&gt;void accept(VisitorNode * visitor) override;&lt;/div&gt;&lt;div&gt;ASTBoolLiteral()=default;&lt;/div&gt;&lt;div&gt;~ASTBoolLiteral()=default;&lt;/div&gt;" style="text;strokeColor=none;fillColor=none;align=left;verticalAlign=top;spacingLeft=4;spacingRight=4;overflow=hidden;rotatable=0;points=[[0,0.5],[1,0.5]];portConstraint=eastwest;whiteSpace=wrap;html=1;" vertex="1" parent="go2y35mZsy017kKOZNHy-104">
          <mxGeometry y="60" width="250" height="70" as="geometry" />
        </mxCell>
        <mxCell id="go2y35mZsy017kKOZNHy-107" value="ASTPadWidth" style="swimlane;fontStyle=1;align=center;verticalAlign=top;childLayout=stackLayout;horizontal=1;startSize=26;horizontalStack=0;resizeParent=1;resizeParentMax=0;resizeLast=0;collapsible=1;marginBottom=0;whiteSpace=wrap;html=1;" vertex="1" parent="1">
          <mxGeometry x="1760" y="-1590" width="250" height="130" as="geometry" />
        </mxCell>
        <mxCell id="go2y35mZsy017kKOZNHy-108" value="&lt;div style=&quot;border-color: var(--border-color);&quot;&gt;&lt;div style=&quot;border-color: var(--border-color);&quot;&gt;&lt;div style=&quot;border-color: var(--border-color);&quot;&gt;&lt;div style=&quot;border-color: var(--border-color);&quot;&gt;&lt;div style=&quot;border-color: var(--border-color);&quot;&gt;string value;&lt;br&gt;&lt;/div&gt;&lt;/div&gt;&lt;/div&gt;&lt;/div&gt;&lt;/div&gt;" style="text;strokeColor=default;fillColor=none;align=left;verticalAlign=top;spacingLeft=4;spacingRight=4;overflow=hidden;rotatable=0;points=[[0,0.5],[1,0.5]];portConstraint=eastwest;whiteSpace=wrap;html=1;perimeterSpacing=0;" vertex="1" parent="go2y35mZsy017kKOZNHy-107">
          <mxGeometry y="26" width="250" height="34" as="geometry" />
        </mxCell>
        <mxCell id="go2y35mZsy017kKOZNHy-109" value="&lt;div&gt;&lt;span style=&quot;background-color: initial;&quot;&gt;explicit ASTPadWidth( string value);&lt;/span&gt;&lt;br&gt;&lt;/div&gt;&lt;div&gt;void accept(VisitorNode * visitor) override;&lt;/div&gt;&lt;div&gt;&amp;nbsp;ASTPadWidth()=default;&lt;/div&gt;&lt;div&gt;&amp;nbsp;~ASTPadWidth()=default;&lt;/div&gt;" style="text;strokeColor=none;fillColor=none;align=left;verticalAlign=top;spacingLeft=4;spacingRight=4;overflow=hidden;rotatable=0;points=[[0,0.5],[1,0.5]];portConstraint=eastwest;whiteSpace=wrap;html=1;" vertex="1" parent="go2y35mZsy017kKOZNHy-107">
          <mxGeometry y="60" width="250" height="70" as="geometry" />
        </mxCell>
        <mxCell id="go2y35mZsy017kKOZNHy-110" value="ASTPadHeight" style="swimlane;fontStyle=1;align=center;verticalAlign=top;childLayout=stackLayout;horizontal=1;startSize=26;horizontalStack=0;resizeParent=1;resizeParentMax=0;resizeLast=0;collapsible=1;marginBottom=0;whiteSpace=wrap;html=1;" vertex="1" parent="1">
          <mxGeometry x="1870" y="-1440" width="250" height="130" as="geometry" />
        </mxCell>
        <mxCell id="go2y35mZsy017kKOZNHy-111" value="&lt;div style=&quot;border-color: var(--border-color);&quot;&gt;&lt;div style=&quot;border-color: var(--border-color);&quot;&gt;&lt;div style=&quot;border-color: var(--border-color);&quot;&gt;&lt;div style=&quot;border-color: var(--border-color);&quot;&gt;&lt;div style=&quot;border-color: var(--border-color);&quot;&gt;string value;&lt;br&gt;&lt;/div&gt;&lt;/div&gt;&lt;/div&gt;&lt;/div&gt;&lt;/div&gt;" style="text;strokeColor=default;fillColor=none;align=left;verticalAlign=top;spacingLeft=4;spacingRight=4;overflow=hidden;rotatable=0;points=[[0,0.5],[1,0.5]];portConstraint=eastwest;whiteSpace=wrap;html=1;perimeterSpacing=0;" vertex="1" parent="go2y35mZsy017kKOZNHy-110">
          <mxGeometry y="26" width="250" height="34" as="geometry" />
        </mxCell>
        <mxCell id="go2y35mZsy017kKOZNHy-112" value="&lt;div&gt;&lt;span style=&quot;background-color: initial;&quot;&gt;explicit ASTPadHeight( string value);&lt;/span&gt;&lt;br&gt;&lt;/div&gt;&lt;div&gt;void accept(VisitorNode * visitor) override;&lt;/div&gt;&lt;div&gt;&amp;nbsp;ASTPadHeight()=default;&lt;/div&gt;&lt;div&gt;&amp;nbsp;~ASTPadHeight()=default;&lt;/div&gt;" style="text;strokeColor=none;fillColor=none;align=left;verticalAlign=top;spacingLeft=4;spacingRight=4;overflow=hidden;rotatable=0;points=[[0,0.5],[1,0.5]];portConstraint=eastwest;whiteSpace=wrap;html=1;" vertex="1" parent="go2y35mZsy017kKOZNHy-110">
          <mxGeometry y="60" width="250" height="70" as="geometry" />
        </mxCell>
        <mxCell id="go2y35mZsy017kKOZNHy-113" value="ASTPadRead" style="swimlane;fontStyle=1;align=center;verticalAlign=top;childLayout=stackLayout;horizontal=1;startSize=26;horizontalStack=0;resizeParent=1;resizeParentMax=0;resizeLast=0;collapsible=1;marginBottom=0;whiteSpace=wrap;html=1;" vertex="1" parent="1">
          <mxGeometry x="1754" y="-1030" width="550" height="150" as="geometry" />
        </mxCell>
        <mxCell id="go2y35mZsy017kKOZNHy-114" value="&lt;div style=&quot;border-color: var(--border-color);&quot;&gt;&lt;div style=&quot;border-color: var(--border-color);&quot;&gt;&lt;div style=&quot;border-color: var(--border-color);&quot;&gt;&lt;div style=&quot;border-color: var(--border-color);&quot;&gt;&lt;div style=&quot;border-color: var(--border-color);&quot;&gt;&lt;div style=&quot;border-color: var(--border-color);&quot;&gt;shared_ptr&amp;lt;ASTExpr&amp;gt; firstExpression;&lt;/div&gt;&lt;div style=&quot;border-color: var(--border-color);&quot;&gt;shared_ptr&amp;lt;ASTExpr&amp;gt; secondExpression;&lt;/div&gt;&lt;/div&gt;&lt;/div&gt;&lt;/div&gt;&lt;/div&gt;&lt;/div&gt;" style="text;strokeColor=default;fillColor=none;align=left;verticalAlign=top;spacingLeft=4;spacingRight=4;overflow=hidden;rotatable=0;points=[[0,0.5],[1,0.5]];portConstraint=eastwest;whiteSpace=wrap;html=1;perimeterSpacing=0;" vertex="1" parent="go2y35mZsy017kKOZNHy-113">
          <mxGeometry y="26" width="550" height="44" as="geometry" />
        </mxCell>
        <mxCell id="go2y35mZsy017kKOZNHy-115" value="&lt;div&gt;ASTPadRead()=default;&lt;/div&gt;&lt;div&gt;void accept(VisitorNode * visitor) override;&lt;/div&gt;&lt;div&gt;ASTPadRead( shared_ptr&amp;lt;ASTExpr&amp;gt; firstExpression, shared_ptr&amp;lt;ASTExpr&amp;gt; secondExpression);&lt;/div&gt;&lt;div&gt;&amp;nbsp;~ASTPadRead();&lt;/div&gt;" style="text;strokeColor=none;fillColor=none;align=left;verticalAlign=top;spacingLeft=4;spacingRight=4;overflow=hidden;rotatable=0;points=[[0,0.5],[1,0.5]];portConstraint=eastwest;whiteSpace=wrap;html=1;" vertex="1" parent="go2y35mZsy017kKOZNHy-113">
          <mxGeometry y="70" width="550" height="80" as="geometry" />
        </mxCell>
        <mxCell id="go2y35mZsy017kKOZNHy-116" value="ASTPadRandi" style="swimlane;fontStyle=1;align=center;verticalAlign=top;childLayout=stackLayout;horizontal=1;startSize=26;horizontalStack=0;resizeParent=1;resizeParentMax=0;resizeLast=0;collapsible=1;marginBottom=0;whiteSpace=wrap;html=1;" vertex="1" parent="1">
          <mxGeometry x="2040" y="-1240" width="350" height="130" as="geometry" />
        </mxCell>
        <mxCell id="go2y35mZsy017kKOZNHy-117" value="&lt;div style=&quot;border-color: var(--border-color);&quot;&gt;&lt;div style=&quot;border-color: var(--border-color);&quot;&gt;&lt;div style=&quot;border-color: var(--border-color);&quot;&gt;&lt;div style=&quot;border-color: var(--border-color);&quot;&gt;&lt;div style=&quot;border-color: var(--border-color);&quot;&gt;shared_ptr&amp;lt;ASTExpr&amp;gt; expression;&lt;br&gt;&lt;/div&gt;&lt;/div&gt;&lt;/div&gt;&lt;/div&gt;&lt;/div&gt;" style="text;strokeColor=default;fillColor=none;align=left;verticalAlign=top;spacingLeft=4;spacingRight=4;overflow=hidden;rotatable=0;points=[[0,0.5],[1,0.5]];portConstraint=eastwest;whiteSpace=wrap;html=1;perimeterSpacing=0;" vertex="1" parent="go2y35mZsy017kKOZNHy-116">
          <mxGeometry y="26" width="350" height="34" as="geometry" />
        </mxCell>
        <mxCell id="go2y35mZsy017kKOZNHy-118" value="&lt;div&gt;ASTPadRandi()=default;&lt;/div&gt;&lt;div&gt;explicit ASTPadRandi( shared_ptr&amp;lt;ASTExpr&amp;gt; expression);&lt;/div&gt;&lt;div&gt;void accept(VisitorNode * visitor) override;&lt;/div&gt;&lt;div&gt;~ASTPadRandi();&lt;/div&gt;" style="text;strokeColor=none;fillColor=none;align=left;verticalAlign=top;spacingLeft=4;spacingRight=4;overflow=hidden;rotatable=0;points=[[0,0.5],[1,0.5]];portConstraint=eastwest;whiteSpace=wrap;html=1;" vertex="1" parent="go2y35mZsy017kKOZNHy-116">
          <mxGeometry y="60" width="350" height="70" as="geometry" />
        </mxCell>
        <mxCell id="go2y35mZsy017kKOZNHy-119" value="ASTIdentifier" style="swimlane;fontStyle=1;align=center;verticalAlign=top;childLayout=stackLayout;horizontal=1;startSize=26;horizontalStack=0;resizeParent=1;resizeParentMax=0;resizeLast=0;collapsible=1;marginBottom=0;whiteSpace=wrap;html=1;" vertex="1" parent="1">
          <mxGeometry x="1830" y="-847" width="260" height="130" as="geometry" />
        </mxCell>
        <mxCell id="go2y35mZsy017kKOZNHy-120" value="&lt;div style=&quot;border-color: var(--border-color);&quot;&gt;&lt;div style=&quot;border-color: var(--border-color);&quot;&gt;&lt;div style=&quot;border-color: var(--border-color);&quot;&gt;&lt;div style=&quot;border-color: var(--border-color);&quot;&gt;&lt;div style=&quot;border-color: var(--border-color);&quot;&gt;string identifier;&lt;br&gt;&lt;/div&gt;&lt;/div&gt;&lt;/div&gt;&lt;/div&gt;&lt;/div&gt;" style="text;strokeColor=default;fillColor=none;align=left;verticalAlign=top;spacingLeft=4;spacingRight=4;overflow=hidden;rotatable=0;points=[[0,0.5],[1,0.5]];portConstraint=eastwest;whiteSpace=wrap;html=1;perimeterSpacing=0;" vertex="1" parent="go2y35mZsy017kKOZNHy-119">
          <mxGeometry y="26" width="260" height="34" as="geometry" />
        </mxCell>
        <mxCell id="go2y35mZsy017kKOZNHy-121" value="&lt;div&gt;explicit ASTIdentifier( string identifier);&lt;/div&gt;&lt;div&gt;void accept(VisitorNode * visitor) override;&lt;/div&gt;&lt;div&gt;ASTIdentifier()=default;&lt;/div&gt;&lt;div&gt;&amp;nbsp;~ASTIdentifier()=default;&lt;/div&gt;" style="text;strokeColor=none;fillColor=none;align=left;verticalAlign=top;spacingLeft=4;spacingRight=4;overflow=hidden;rotatable=0;points=[[0,0.5],[1,0.5]];portConstraint=eastwest;whiteSpace=wrap;html=1;" vertex="1" parent="go2y35mZsy017kKOZNHy-119">
          <mxGeometry y="60" width="260" height="70" as="geometry" />
        </mxCell>
        <mxCell id="go2y35mZsy017kKOZNHy-122" value="ASTMultiplicativeOp" style="swimlane;fontStyle=1;align=center;verticalAlign=top;childLayout=stackLayout;horizontal=1;startSize=26;horizontalStack=0;resizeParent=1;resizeParentMax=0;resizeLast=0;collapsible=1;marginBottom=0;whiteSpace=wrap;html=1;" vertex="1" parent="1">
          <mxGeometry x="1800" y="-670" width="650" height="160" as="geometry" />
        </mxCell>
        <mxCell id="go2y35mZsy017kKOZNHy-123" value="&lt;div style=&quot;border-color: var(--border-color);&quot;&gt;&lt;div style=&quot;border-color: var(--border-color);&quot;&gt;&lt;div style=&quot;border-color: var(--border-color);&quot;&gt;&lt;div style=&quot;border-color: var(--border-color);&quot;&gt;&lt;div style=&quot;border-color: var(--border-color);&quot;&gt;&lt;div style=&quot;border-color: var(--border-color);&quot;&gt;&lt;div style=&quot;border-color: var(--border-color);&quot;&gt;shared_ptr&amp;lt;ASTExpr&amp;gt; leftFactor;&lt;/div&gt;&lt;div style=&quot;border-color: var(--border-color);&quot;&gt;string multiplicativeOp ;&lt;/div&gt;&lt;div style=&quot;border-color: var(--border-color);&quot;&gt;shared_ptr&amp;lt;ASTExpr&amp;gt; rightFactor;&lt;/div&gt;&lt;/div&gt;&lt;/div&gt;&lt;/div&gt;&lt;/div&gt;&lt;/div&gt;&lt;/div&gt;" style="text;strokeColor=default;fillColor=none;align=left;verticalAlign=top;spacingLeft=4;spacingRight=4;overflow=hidden;rotatable=0;points=[[0,0.5],[1,0.5]];portConstraint=eastwest;whiteSpace=wrap;html=1;perimeterSpacing=0;" vertex="1" parent="go2y35mZsy017kKOZNHy-122">
          <mxGeometry y="26" width="650" height="54" as="geometry" />
        </mxCell>
        <mxCell id="go2y35mZsy017kKOZNHy-124" value="&lt;div&gt;ASTMultiplicativeOp()=default;&lt;/div&gt;&lt;div&gt;ASTMultiplicativeOp( shared_ptr&amp;lt;ASTExpr&amp;gt; leftFactor, string multiplicativeOp , shared_ptr&amp;lt;ASTExpr&amp;gt; rightFactor);&lt;/div&gt;&lt;div&gt;void accept(VisitorNode * visitor) override;&lt;/div&gt;&lt;div&gt;~ASTMultiplicativeOp();&lt;/div&gt;" style="text;strokeColor=none;fillColor=none;align=left;verticalAlign=top;spacingLeft=4;spacingRight=4;overflow=hidden;rotatable=0;points=[[0,0.5],[1,0.5]];portConstraint=eastwest;whiteSpace=wrap;html=1;" vertex="1" parent="go2y35mZsy017kKOZNHy-122">
          <mxGeometry y="80" width="650" height="80" as="geometry" />
        </mxCell>
        <mxCell id="go2y35mZsy017kKOZNHy-125" value="ASTAdditiveOp" style="swimlane;fontStyle=1;align=center;verticalAlign=top;childLayout=stackLayout;horizontal=1;startSize=26;horizontalStack=0;resizeParent=1;resizeParentMax=0;resizeLast=0;collapsible=1;marginBottom=0;whiteSpace=wrap;html=1;" vertex="1" parent="1">
          <mxGeometry x="1800" y="-480" width="570" height="150" as="geometry" />
        </mxCell>
        <mxCell id="go2y35mZsy017kKOZNHy-126" value="&lt;div style=&quot;border-color: var(--border-color);&quot;&gt;&lt;div style=&quot;border-color: var(--border-color);&quot;&gt;&lt;div style=&quot;border-color: var(--border-color);&quot;&gt;&lt;div style=&quot;border-color: var(--border-color);&quot;&gt;&lt;div style=&quot;border-color: var(--border-color);&quot;&gt;&lt;div style=&quot;border-color: var(--border-color);&quot;&gt;&lt;div style=&quot;border-color: var(--border-color);&quot;&gt;&lt;div style=&quot;border-color: var(--border-color);&quot;&gt;shared_ptr&amp;lt;ASTExpr&amp;gt; leftTerm;&lt;/div&gt;&lt;div style=&quot;border-color: var(--border-color);&quot;&gt;string additiveOp ;&lt;/div&gt;&lt;div style=&quot;border-color: var(--border-color);&quot;&gt;shared_ptr&amp;lt;ASTExpr&amp;gt; rightTerm;&lt;/div&gt;&lt;/div&gt;&lt;/div&gt;&lt;/div&gt;&lt;/div&gt;&lt;/div&gt;&lt;/div&gt;&lt;/div&gt;" style="text;strokeColor=default;fillColor=none;align=left;verticalAlign=top;spacingLeft=4;spacingRight=4;overflow=hidden;rotatable=0;points=[[0,0.5],[1,0.5]];portConstraint=eastwest;whiteSpace=wrap;html=1;perimeterSpacing=0;" vertex="1" parent="go2y35mZsy017kKOZNHy-125">
          <mxGeometry y="26" width="570" height="54" as="geometry" />
        </mxCell>
        <mxCell id="go2y35mZsy017kKOZNHy-127" value="&lt;div&gt;ASTAdditiveOp()=default;&lt;/div&gt;&lt;div&gt;ASTAdditiveOp( shared_ptr&amp;lt;ASTExpr&amp;gt; leftTerm, string additiveOp , shared_ptr&amp;lt;ASTExpr&amp;gt; rightTerm);&lt;/div&gt;&lt;div&gt;void accept(VisitorNode * visitor) override;&lt;/div&gt;&lt;div&gt;~ASTAdditiveOp();&lt;/div&gt;" style="text;strokeColor=none;fillColor=none;align=left;verticalAlign=top;spacingLeft=4;spacingRight=4;overflow=hidden;rotatable=0;points=[[0,0.5],[1,0.5]];portConstraint=eastwest;whiteSpace=wrap;html=1;" vertex="1" parent="go2y35mZsy017kKOZNHy-125">
          <mxGeometry y="80" width="570" height="70" as="geometry" />
        </mxCell>
        <mxCell id="go2y35mZsy017kKOZNHy-128" value="ASTRelationalOp" style="swimlane;fontStyle=1;align=center;verticalAlign=top;childLayout=stackLayout;horizontal=1;startSize=26;horizontalStack=0;resizeParent=1;resizeParentMax=0;resizeLast=0;collapsible=1;marginBottom=0;whiteSpace=wrap;html=1;" vertex="1" parent="1">
          <mxGeometry x="1800" y="-305" width="650" height="150" as="geometry" />
        </mxCell>
        <mxCell id="go2y35mZsy017kKOZNHy-129" value="&lt;div style=&quot;border-color: var(--border-color);&quot;&gt;&lt;div style=&quot;border-color: var(--border-color);&quot;&gt;&lt;div style=&quot;border-color: var(--border-color);&quot;&gt;&lt;div style=&quot;border-color: var(--border-color);&quot;&gt;&lt;div style=&quot;border-color: var(--border-color);&quot;&gt;&lt;div style=&quot;border-color: var(--border-color);&quot;&gt;&lt;div style=&quot;border-color: var(--border-color);&quot;&gt;&lt;div style=&quot;border-color: var(--border-color);&quot;&gt;shared_ptr&amp;lt;ASTExpr&amp;gt; leftSimpleExpr;&lt;/div&gt;&lt;div style=&quot;border-color: var(--border-color);&quot;&gt;string relationalOp ;&lt;/div&gt;&lt;div style=&quot;border-color: var(--border-color);&quot;&gt;shared_ptr&amp;lt;ASTExpr&amp;gt; rightSimpleExpr;&lt;/div&gt;&lt;/div&gt;&lt;/div&gt;&lt;/div&gt;&lt;/div&gt;&lt;/div&gt;&lt;/div&gt;&lt;/div&gt;" style="text;strokeColor=default;fillColor=none;align=left;verticalAlign=top;spacingLeft=4;spacingRight=4;overflow=hidden;rotatable=0;points=[[0,0.5],[1,0.5]];portConstraint=eastwest;whiteSpace=wrap;html=1;perimeterSpacing=0;" vertex="1" parent="go2y35mZsy017kKOZNHy-128">
          <mxGeometry y="26" width="650" height="54" as="geometry" />
        </mxCell>
        <mxCell id="go2y35mZsy017kKOZNHy-130" value="&lt;div&gt;ASTRelationalOp()=default;&lt;/div&gt;&lt;div&gt;ASTRelationalOp( shared_ptr&amp;lt;ASTExpr&amp;gt; leftSimpleExpr, string relationalOp , shared_ptr&amp;lt;ASTExpr&amp;gt; rightSimpleExpr);&lt;/div&gt;&lt;div&gt;void accept(VisitorNode * visitor) override;&lt;/div&gt;&lt;div&gt;~ASTRelationalOp();&lt;/div&gt;" style="text;strokeColor=none;fillColor=none;align=left;verticalAlign=top;spacingLeft=4;spacingRight=4;overflow=hidden;rotatable=0;points=[[0,0.5],[1,0.5]];portConstraint=eastwest;whiteSpace=wrap;html=1;" vertex="1" parent="go2y35mZsy017kKOZNHy-128">
          <mxGeometry y="80" width="650" height="70" as="geometry" />
        </mxCell>
        <mxCell id="go2y35mZsy017kKOZNHy-131" style="rounded=0;orthogonalLoop=1;jettySize=auto;html=1;strokeColor=#000000;endArrow=block;endFill=0;strokeWidth=1;endSize=8;edgeStyle=orthogonalEdgeStyle;entryX=0.5;entryY=0;entryDx=0;entryDy=0;" edge="1" parent="1" source="go2y35mZsy017kKOZNHy-50" target="go2y35mZsy017kKOZNHy-2">
          <mxGeometry relative="1" as="geometry">
            <mxPoint x="-590" y="-698" as="sourcePoint" />
            <mxPoint x="-650" y="-378" as="targetPoint" />
            <Array as="points">
              <mxPoint x="-795" y="-550" />
              <mxPoint x="-795" y="-550" />
            </Array>
          </mxGeometry>
        </mxCell>
        <mxCell id="go2y35mZsy017kKOZNHy-133" style="edgeStyle=orthogonalEdgeStyle;rounded=0;orthogonalLoop=1;jettySize=auto;html=1;exitX=0;exitY=0.5;exitDx=0;exitDy=0;endArrow=block;endFill=0;" edge="1" parent="1" source="go2y35mZsy017kKOZNHy-27">
          <mxGeometry relative="1" as="geometry">
            <mxPoint x="-220" y="-680" as="targetPoint" />
            <Array as="points">
              <mxPoint x="-120" y="-1317" />
              <mxPoint x="-120" y="-680" />
            </Array>
          </mxGeometry>
        </mxCell>
        <mxCell id="go2y35mZsy017kKOZNHy-134" style="edgeStyle=orthogonalEdgeStyle;rounded=0;orthogonalLoop=1;jettySize=auto;html=1;exitX=0;exitY=0.5;exitDx=0;exitDy=0;endArrow=block;endFill=0;" edge="1" parent="1" source="go2y35mZsy017kKOZNHy-60">
          <mxGeometry relative="1" as="geometry">
            <mxPoint x="-220" y="-670" as="targetPoint" />
            <Array as="points">
              <mxPoint x="-120" y="-1117" />
              <mxPoint x="-120" y="-670" />
              <mxPoint x="-220" y="-670" />
            </Array>
          </mxGeometry>
        </mxCell>
        <mxCell id="go2y35mZsy017kKOZNHy-137" style="edgeStyle=orthogonalEdgeStyle;rounded=0;orthogonalLoop=1;jettySize=auto;html=1;exitX=0;exitY=0.5;exitDx=0;exitDy=0;endArrow=block;endFill=0;" edge="1" parent="1" source="go2y35mZsy017kKOZNHy-54">
          <mxGeometry relative="1" as="geometry">
            <mxPoint x="-220" y="-652" as="targetPoint" />
            <Array as="points">
              <mxPoint x="-120" y="-917" />
              <mxPoint x="-120" y="-652" />
            </Array>
          </mxGeometry>
        </mxCell>
        <mxCell id="go2y35mZsy017kKOZNHy-138" style="edgeStyle=orthogonalEdgeStyle;rounded=0;orthogonalLoop=1;jettySize=auto;html=1;exitX=0;exitY=0.5;exitDx=0;exitDy=0;entryX=0.998;entryY=0.118;entryDx=0;entryDy=0;entryPerimeter=0;endArrow=block;endFill=0;" edge="1" parent="1" source="go2y35mZsy017kKOZNHy-57" target="go2y35mZsy017kKOZNHy-15">
          <mxGeometry relative="1" as="geometry" />
        </mxCell>
        <mxCell id="go2y35mZsy017kKOZNHy-139" style="edgeStyle=orthogonalEdgeStyle;rounded=0;orthogonalLoop=1;jettySize=auto;html=1;exitX=0;exitY=0.5;exitDx=0;exitDy=0;endArrow=block;endFill=0;" edge="1" parent="1" source="go2y35mZsy017kKOZNHy-31" target="go2y35mZsy017kKOZNHy-15">
          <mxGeometry relative="1" as="geometry" />
        </mxCell>
        <mxCell id="go2y35mZsy017kKOZNHy-140" style="edgeStyle=orthogonalEdgeStyle;rounded=0;orthogonalLoop=1;jettySize=auto;html=1;exitX=0;exitY=0.5;exitDx=0;exitDy=0;endArrow=block;endFill=0;" edge="1" parent="1" source="go2y35mZsy017kKOZNHy-22">
          <mxGeometry relative="1" as="geometry">
            <mxPoint x="-220" y="-630" as="targetPoint" />
            <Array as="points">
              <mxPoint x="-120" y="-372" />
              <mxPoint x="-120" y="-630" />
            </Array>
          </mxGeometry>
        </mxCell>
        <mxCell id="go2y35mZsy017kKOZNHy-141" style="edgeStyle=orthogonalEdgeStyle;rounded=0;orthogonalLoop=1;jettySize=auto;html=1;exitX=0;exitY=0.5;exitDx=0;exitDy=0;endArrow=block;endFill=0;" edge="1" parent="1" source="go2y35mZsy017kKOZNHy-42">
          <mxGeometry relative="1" as="geometry">
            <mxPoint x="-220" y="-700" as="targetPoint" />
            <Array as="points">
              <mxPoint x="-120" y="-202" />
              <mxPoint x="-120" y="-700" />
              <mxPoint x="-220" y="-700" />
            </Array>
          </mxGeometry>
        </mxCell>
        <mxCell id="go2y35mZsy017kKOZNHy-142" style="edgeStyle=orthogonalEdgeStyle;rounded=0;orthogonalLoop=1;jettySize=auto;html=1;exitX=0;exitY=0.5;exitDx=0;exitDy=0;endArrow=block;endFill=0;" edge="1" parent="1" source="go2y35mZsy017kKOZNHy-48" target="go2y35mZsy017kKOZNHy-15">
          <mxGeometry relative="1" as="geometry">
            <mxPoint x="-220" y="-510" as="targetPoint" />
            <Array as="points">
              <mxPoint x="-120" y="-32" />
              <mxPoint x="-120" y="-640" />
            </Array>
          </mxGeometry>
        </mxCell>
        <mxCell id="go2y35mZsy017kKOZNHy-143" style="edgeStyle=orthogonalEdgeStyle;rounded=0;orthogonalLoop=1;jettySize=auto;html=1;exitX=0;exitY=0.5;exitDx=0;exitDy=0;endArrow=block;endFill=0;" edge="1" parent="1" source="go2y35mZsy017kKOZNHy-39">
          <mxGeometry relative="1" as="geometry">
            <mxPoint x="-220" y="-710" as="targetPoint" />
            <Array as="points">
              <mxPoint x="-120" y="138" />
              <mxPoint x="-120" y="-710" />
            </Array>
          </mxGeometry>
        </mxCell>
      </root>
    </mxGraphModel>
  </diagram>
</mxfile>
